G75*
%MOIN*%
%OFA0B0*%
%FSLAX25Y25*%
%IPPOS*%
%LPD*%
%AMOC8*
5,1,8,0,0,1.08239X$1,22.5*
%
%ADD10C,0.00000*%
%ADD11OC8,0.05600*%
%ADD12C,0.05600*%
%ADD13C,0.05550*%
%ADD14C,0.11620*%
%ADD15C,0.07800*%
%ADD16C,0.05600*%
%ADD17C,0.06337*%
D10*
X0011800Y0011800D02*
X0011800Y0208650D01*
X0208650Y0208650D01*
X0208650Y0011800D01*
X0011800Y0011800D01*
D11*
X0041800Y0021800D03*
X0041800Y0031800D03*
X0041800Y0041800D03*
X0051800Y0041800D03*
X0056800Y0026800D03*
X0081800Y0046800D03*
X0081800Y0056800D03*
X0089300Y0031800D03*
X0089300Y0021800D03*
X0104300Y0021800D03*
X0111800Y0026800D03*
X0104300Y0031800D03*
X0124300Y0031800D03*
X0124300Y0021800D03*
X0141800Y0081800D03*
X0051800Y0081800D03*
X0041800Y0081800D03*
X0046800Y0176800D03*
X0041800Y0186800D03*
X0031800Y0186800D03*
X0021800Y0186800D03*
X0081800Y0186800D03*
X0086800Y0176800D03*
X0126800Y0186800D03*
X0126800Y0196800D03*
D12*
X0141800Y0101800D03*
X0076800Y0026800D03*
D13*
X0143926Y0026800D03*
X0151800Y0026800D03*
X0159674Y0026800D03*
X0176721Y0035501D03*
X0181446Y0038650D03*
X0176721Y0041800D03*
X0181446Y0044950D03*
X0176721Y0048099D03*
D14*
X0196800Y0056170D03*
X0196800Y0027430D03*
D15*
X0203800Y0076800D03*
X0203800Y0086800D03*
X0203800Y0096800D03*
X0203800Y0106800D03*
X0203800Y0116800D03*
X0203800Y0126800D03*
X0203800Y0136800D03*
X0203800Y0146800D03*
X0106800Y0196800D03*
X0086800Y0196800D03*
X0056800Y0201800D03*
X0046800Y0201800D03*
X0036800Y0201800D03*
X0026800Y0201800D03*
X0016800Y0201800D03*
X0016800Y0146800D03*
X0016800Y0136800D03*
X0016800Y0126800D03*
X0016800Y0116800D03*
X0016800Y0106800D03*
X0016800Y0096800D03*
X0016800Y0086800D03*
X0016800Y0076800D03*
X0021800Y0061800D03*
X0021800Y0041800D03*
X0081800Y0086800D03*
X0081800Y0096800D03*
X0081800Y0106800D03*
D16*
X0094200Y0106800D02*
X0099400Y0106800D01*
X0099400Y0116800D02*
X0094200Y0116800D01*
X0094200Y0126800D02*
X0099400Y0126800D01*
X0099400Y0136800D02*
X0094200Y0136800D01*
X0094200Y0146800D02*
X0099400Y0146800D01*
X0099400Y0156800D02*
X0094200Y0156800D01*
X0094200Y0166800D02*
X0099400Y0166800D01*
X0099400Y0176800D02*
X0094200Y0176800D01*
X0124200Y0176800D02*
X0129400Y0176800D01*
X0129400Y0166800D02*
X0124200Y0166800D01*
X0124200Y0156800D02*
X0129400Y0156800D01*
X0129400Y0146800D02*
X0124200Y0146800D01*
X0124200Y0136800D02*
X0129400Y0136800D01*
X0129400Y0126800D02*
X0124200Y0126800D01*
X0124200Y0116800D02*
X0129400Y0116800D01*
X0129400Y0106800D02*
X0124200Y0106800D01*
X0124200Y0096800D02*
X0129400Y0096800D01*
X0129400Y0086800D02*
X0124200Y0086800D01*
X0124200Y0076800D02*
X0129400Y0076800D01*
X0129400Y0066800D02*
X0124200Y0066800D01*
X0124200Y0056800D02*
X0129400Y0056800D01*
X0129400Y0046800D02*
X0124200Y0046800D01*
X0099400Y0046800D02*
X0094200Y0046800D01*
X0094200Y0056800D02*
X0099400Y0056800D01*
X0099400Y0066800D02*
X0094200Y0066800D01*
X0094200Y0076800D02*
X0099400Y0076800D01*
X0099400Y0086800D02*
X0094200Y0086800D01*
X0094200Y0096800D02*
X0099400Y0096800D01*
D17*
X0136052Y0026800D03*
X0167548Y0026800D03*
M02*
