G75*
%MOIN*%
%OFA0B0*%
%FSLAX25Y25*%
%IPPOS*%
%LPD*%
%AMOC8*
5,1,8,0,0,1.08239X$1,22.5*
%
%ADD10C,0.00000*%
%ADD11OC8,0.05200*%
%ADD12C,0.05200*%
%ADD13C,0.05150*%
%ADD14C,0.11220*%
%ADD15C,0.07400*%
%ADD16C,0.05200*%
%ADD17C,0.05937*%
%ADD18C,0.01600*%
D10*
X0011800Y0011800D02*
X0011800Y0208650D01*
X0208650Y0208650D01*
X0208650Y0011800D01*
X0011800Y0011800D01*
D11*
X0041800Y0021800D03*
X0041800Y0031800D03*
X0041800Y0041800D03*
X0051800Y0041800D03*
X0056800Y0026800D03*
X0081800Y0046800D03*
X0081800Y0056800D03*
X0089300Y0031800D03*
X0089300Y0021800D03*
X0104300Y0021800D03*
X0111800Y0026800D03*
X0104300Y0031800D03*
X0124300Y0031800D03*
X0124300Y0021800D03*
X0141800Y0081800D03*
X0051800Y0081800D03*
X0041800Y0081800D03*
X0046800Y0176800D03*
X0041800Y0186800D03*
X0031800Y0186800D03*
X0021800Y0186800D03*
X0081800Y0186800D03*
X0086800Y0176800D03*
X0126800Y0186800D03*
X0126800Y0196800D03*
D12*
X0141800Y0101800D03*
X0076800Y0026800D03*
D13*
X0143926Y0026800D03*
X0151800Y0026800D03*
X0159674Y0026800D03*
X0176721Y0035501D03*
X0181446Y0038650D03*
X0176721Y0041800D03*
X0181446Y0044950D03*
X0176721Y0048099D03*
D14*
X0196800Y0056170D03*
X0196800Y0027430D03*
D15*
X0203800Y0076800D03*
X0203800Y0086800D03*
X0203800Y0096800D03*
X0203800Y0106800D03*
X0203800Y0116800D03*
X0203800Y0126800D03*
X0203800Y0136800D03*
X0203800Y0146800D03*
X0106800Y0196800D03*
X0086800Y0196800D03*
X0056800Y0201800D03*
X0046800Y0201800D03*
X0036800Y0201800D03*
X0026800Y0201800D03*
X0016800Y0201800D03*
X0016800Y0146800D03*
X0016800Y0136800D03*
X0016800Y0126800D03*
X0016800Y0116800D03*
X0016800Y0106800D03*
X0016800Y0096800D03*
X0016800Y0086800D03*
X0016800Y0076800D03*
X0021800Y0061800D03*
X0021800Y0041800D03*
X0081800Y0086800D03*
X0081800Y0096800D03*
X0081800Y0106800D03*
D16*
X0094200Y0106800D02*
X0099400Y0106800D01*
X0099400Y0116800D02*
X0094200Y0116800D01*
X0094200Y0126800D02*
X0099400Y0126800D01*
X0099400Y0136800D02*
X0094200Y0136800D01*
X0094200Y0146800D02*
X0099400Y0146800D01*
X0099400Y0156800D02*
X0094200Y0156800D01*
X0094200Y0166800D02*
X0099400Y0166800D01*
X0099400Y0176800D02*
X0094200Y0176800D01*
X0124200Y0176800D02*
X0129400Y0176800D01*
X0129400Y0166800D02*
X0124200Y0166800D01*
X0124200Y0156800D02*
X0129400Y0156800D01*
X0129400Y0146800D02*
X0124200Y0146800D01*
X0124200Y0136800D02*
X0129400Y0136800D01*
X0129400Y0126800D02*
X0124200Y0126800D01*
X0124200Y0116800D02*
X0129400Y0116800D01*
X0129400Y0106800D02*
X0124200Y0106800D01*
X0124200Y0096800D02*
X0129400Y0096800D01*
X0129400Y0086800D02*
X0124200Y0086800D01*
X0124200Y0076800D02*
X0129400Y0076800D01*
X0129400Y0066800D02*
X0124200Y0066800D01*
X0124200Y0056800D02*
X0129400Y0056800D01*
X0129400Y0046800D02*
X0124200Y0046800D01*
X0099400Y0046800D02*
X0094200Y0046800D01*
X0094200Y0056800D02*
X0099400Y0056800D01*
X0099400Y0066800D02*
X0094200Y0066800D01*
X0094200Y0076800D02*
X0099400Y0076800D01*
X0099400Y0086800D02*
X0094200Y0086800D01*
X0094200Y0096800D02*
X0099400Y0096800D01*
D17*
X0136052Y0026800D03*
X0167548Y0026800D03*
D18*
X0163766Y0022990D02*
X0162899Y0022990D01*
X0162492Y0022583D02*
X0163333Y0023423D01*
X0164507Y0022249D01*
X0166480Y0021431D01*
X0168616Y0021431D01*
X0170589Y0022249D01*
X0172099Y0023759D01*
X0172917Y0025732D01*
X0172917Y0027868D01*
X0172099Y0029841D01*
X0170589Y0031351D01*
X0168616Y0032168D01*
X0166480Y0032168D01*
X0164507Y0031351D01*
X0163333Y0030177D01*
X0162492Y0031017D01*
X0160664Y0031775D01*
X0158684Y0031775D01*
X0156856Y0031017D01*
X0155737Y0029898D01*
X0154618Y0031017D01*
X0152790Y0031775D01*
X0150810Y0031775D01*
X0148982Y0031017D01*
X0147863Y0029898D01*
X0146744Y0031017D01*
X0144916Y0031775D01*
X0142936Y0031775D01*
X0141108Y0031017D01*
X0140267Y0030177D01*
X0139093Y0031351D01*
X0137120Y0032168D01*
X0134984Y0032168D01*
X0133011Y0031351D01*
X0131501Y0029841D01*
X0130683Y0027868D01*
X0130683Y0025732D01*
X0131501Y0023759D01*
X0133011Y0022249D01*
X0134984Y0021431D01*
X0137120Y0021431D01*
X0139093Y0022249D01*
X0140267Y0023423D01*
X0141108Y0022583D01*
X0142936Y0021825D01*
X0144916Y0021825D01*
X0146744Y0022583D01*
X0147863Y0023702D01*
X0148982Y0022583D01*
X0150810Y0021825D01*
X0152790Y0021825D01*
X0154618Y0022583D01*
X0155737Y0023702D01*
X0156856Y0022583D01*
X0158684Y0021825D01*
X0160664Y0021825D01*
X0162492Y0022583D01*
X0156449Y0022990D02*
X0155025Y0022990D01*
X0148575Y0022990D02*
X0147151Y0022990D01*
X0140701Y0022990D02*
X0139834Y0022990D01*
X0132270Y0022990D02*
X0128700Y0022990D01*
X0128700Y0023623D02*
X0128700Y0021800D01*
X0124300Y0021800D01*
X0124300Y0021800D01*
X0124300Y0026200D01*
X0126123Y0026200D01*
X0128700Y0023623D01*
X0127734Y0024588D02*
X0131157Y0024588D01*
X0130683Y0026187D02*
X0126136Y0026187D01*
X0126371Y0026800D02*
X0129300Y0029729D01*
X0129300Y0033871D01*
X0126371Y0036800D01*
X0122229Y0036800D01*
X0119300Y0033871D01*
X0119300Y0029729D01*
X0122229Y0026800D01*
X0126371Y0026800D01*
X0127356Y0027785D02*
X0130683Y0027785D01*
X0131311Y0029384D02*
X0128955Y0029384D01*
X0129300Y0030982D02*
X0132642Y0030982D01*
X0129300Y0032581D02*
X0172606Y0032581D01*
X0172504Y0032683D02*
X0173903Y0031283D01*
X0175732Y0030526D01*
X0177711Y0030526D01*
X0179539Y0031283D01*
X0180939Y0032683D01*
X0181350Y0033676D01*
X0182435Y0033676D01*
X0184264Y0034433D01*
X0185663Y0035832D01*
X0186420Y0037661D01*
X0186420Y0039640D01*
X0185663Y0041468D01*
X0185331Y0041800D01*
X0185663Y0042132D01*
X0186420Y0043960D01*
X0186420Y0045939D01*
X0185663Y0047768D01*
X0184264Y0049167D01*
X0182435Y0049924D01*
X0180701Y0049924D01*
X0180463Y0050392D01*
X0180058Y0050949D01*
X0179571Y0051436D01*
X0179014Y0051841D01*
X0178401Y0052153D01*
X0177746Y0052366D01*
X0177066Y0052474D01*
X0176721Y0052474D01*
X0176377Y0052474D01*
X0175697Y0052366D01*
X0175042Y0052153D01*
X0174428Y0051841D01*
X0173871Y0051436D01*
X0173384Y0050949D01*
X0172980Y0050392D01*
X0172667Y0049779D01*
X0172454Y0049124D01*
X0172346Y0048444D01*
X0172346Y0048099D01*
X0172346Y0047755D01*
X0172454Y0047075D01*
X0172667Y0046420D01*
X0172980Y0045806D01*
X0173279Y0045394D01*
X0172504Y0044618D01*
X0171746Y0042790D01*
X0171746Y0040810D01*
X0172504Y0038982D01*
X0172835Y0038650D01*
X0172504Y0038319D01*
X0171746Y0036490D01*
X0171746Y0034511D01*
X0172504Y0032683D01*
X0171884Y0034179D02*
X0128992Y0034179D01*
X0127393Y0035778D02*
X0171746Y0035778D01*
X0172113Y0037376D02*
X0054447Y0037376D01*
X0053871Y0036800D02*
X0056800Y0039729D01*
X0056800Y0043871D01*
X0053871Y0046800D01*
X0049729Y0046800D01*
X0046800Y0043871D01*
X0046800Y0039729D01*
X0049729Y0036800D01*
X0053871Y0036800D01*
X0056046Y0038975D02*
X0172511Y0038975D01*
X0171845Y0040573D02*
X0056800Y0040573D01*
X0056800Y0042172D02*
X0092308Y0042172D01*
X0093205Y0041800D02*
X0100395Y0041800D01*
X0102232Y0042561D01*
X0103639Y0043968D01*
X0104400Y0045805D01*
X0104400Y0047795D01*
X0103639Y0049632D01*
X0102232Y0051039D01*
X0100395Y0051800D01*
X0102232Y0052561D01*
X0103639Y0053968D01*
X0104400Y0055805D01*
X0104400Y0057795D01*
X0103639Y0059632D01*
X0102232Y0061039D01*
X0100395Y0061800D01*
X0102232Y0062561D01*
X0103639Y0063968D01*
X0104400Y0065805D01*
X0104400Y0067795D01*
X0103639Y0069632D01*
X0102232Y0071039D01*
X0100395Y0071800D01*
X0102232Y0072561D01*
X0103639Y0073968D01*
X0104400Y0075805D01*
X0104400Y0077795D01*
X0103639Y0079632D01*
X0102232Y0081039D01*
X0100395Y0081800D01*
X0102232Y0082561D01*
X0103639Y0083968D01*
X0104400Y0085805D01*
X0104400Y0087795D01*
X0103639Y0089632D01*
X0102232Y0091039D01*
X0100395Y0091800D01*
X0102232Y0092561D01*
X0103639Y0093968D01*
X0104400Y0095805D01*
X0104400Y0097795D01*
X0103639Y0099632D01*
X0102232Y0101039D01*
X0100395Y0101800D01*
X0093205Y0101800D01*
X0091368Y0101039D01*
X0089961Y0099632D01*
X0089200Y0097795D01*
X0089200Y0095805D01*
X0089961Y0093968D01*
X0091368Y0092561D01*
X0093205Y0091800D01*
X0100395Y0091800D01*
X0093205Y0091800D01*
X0091368Y0091039D01*
X0089961Y0089632D01*
X0089200Y0087795D01*
X0089200Y0085805D01*
X0089961Y0083968D01*
X0091368Y0082561D01*
X0093205Y0081800D01*
X0100395Y0081800D01*
X0093205Y0081800D01*
X0091368Y0081039D01*
X0089961Y0079632D01*
X0089200Y0077795D01*
X0089200Y0075805D01*
X0089961Y0073968D01*
X0091368Y0072561D01*
X0093205Y0071800D01*
X0100395Y0071800D01*
X0093205Y0071800D01*
X0091368Y0071039D01*
X0089961Y0069632D01*
X0089200Y0067795D01*
X0089200Y0065805D01*
X0089961Y0063968D01*
X0091368Y0062561D01*
X0093205Y0061800D01*
X0100395Y0061800D01*
X0093205Y0061800D01*
X0091368Y0061039D01*
X0089961Y0059632D01*
X0089200Y0057795D01*
X0089200Y0055805D01*
X0089961Y0053968D01*
X0091368Y0052561D01*
X0093205Y0051800D01*
X0100395Y0051800D01*
X0093205Y0051800D01*
X0091368Y0051039D01*
X0089961Y0049632D01*
X0089200Y0047795D01*
X0089200Y0045805D01*
X0089961Y0043968D01*
X0091368Y0042561D01*
X0093205Y0041800D01*
X0090159Y0043770D02*
X0084993Y0043770D01*
X0086200Y0044977D02*
X0083623Y0042400D01*
X0081800Y0042400D01*
X0081800Y0046800D01*
X0081800Y0046800D01*
X0081800Y0051200D01*
X0083623Y0051200D01*
X0086200Y0048623D01*
X0086200Y0046800D01*
X0081800Y0046800D01*
X0081800Y0046800D01*
X0081800Y0046800D01*
X0077400Y0046800D01*
X0077400Y0048623D01*
X0079977Y0051200D01*
X0081800Y0051200D01*
X0081800Y0046800D01*
X0086200Y0046800D01*
X0086200Y0044977D01*
X0086200Y0045369D02*
X0089381Y0045369D01*
X0089200Y0046967D02*
X0086200Y0046967D01*
X0086200Y0048566D02*
X0089519Y0048566D01*
X0090493Y0050164D02*
X0084658Y0050164D01*
X0083871Y0051800D02*
X0086800Y0054729D01*
X0086800Y0058871D01*
X0083871Y0061800D01*
X0079729Y0061800D01*
X0077929Y0060000D01*
X0068125Y0060000D01*
X0050725Y0077400D01*
X0051800Y0077400D01*
X0053623Y0077400D01*
X0056200Y0079977D01*
X0056200Y0081800D01*
X0056200Y0083623D01*
X0053623Y0086200D01*
X0051800Y0086200D01*
X0051800Y0081800D01*
X0051800Y0081800D01*
X0056200Y0081800D01*
X0051800Y0081800D01*
X0051800Y0081800D01*
X0051800Y0081800D01*
X0047400Y0081800D01*
X0047400Y0083623D01*
X0049977Y0086200D01*
X0051800Y0086200D01*
X0051800Y0081800D01*
X0051800Y0077400D01*
X0051800Y0081800D01*
X0051800Y0081800D01*
X0047400Y0081800D01*
X0047400Y0080725D01*
X0046800Y0081325D01*
X0046800Y0083871D01*
X0043871Y0086800D01*
X0041325Y0086800D01*
X0038613Y0089513D01*
X0037437Y0090000D01*
X0022077Y0090000D01*
X0021971Y0090255D01*
X0020427Y0091800D01*
X0021971Y0093345D01*
X0022900Y0095587D01*
X0022900Y0098013D01*
X0021971Y0100255D01*
X0020427Y0101800D01*
X0021971Y0103345D01*
X0022900Y0105587D01*
X0022900Y0108013D01*
X0021971Y0110255D01*
X0020427Y0111800D01*
X0021971Y0113345D01*
X0022900Y0115587D01*
X0022900Y0118013D01*
X0021971Y0120255D01*
X0020427Y0121800D01*
X0021971Y0123345D01*
X0022900Y0125587D01*
X0022900Y0128013D01*
X0021971Y0130255D01*
X0020427Y0131800D01*
X0021971Y0133345D01*
X0022900Y0135587D01*
X0022900Y0138013D01*
X0021971Y0140255D01*
X0020427Y0141800D01*
X0021971Y0143345D01*
X0022900Y0145587D01*
X0022900Y0148013D01*
X0021971Y0150255D01*
X0020255Y0151971D01*
X0018013Y0152900D01*
X0015587Y0152900D01*
X0014200Y0152326D01*
X0014200Y0164875D01*
X0044087Y0134987D01*
X0044987Y0134087D01*
X0046163Y0133600D01*
X0090329Y0133600D01*
X0091368Y0132561D01*
X0093205Y0131800D01*
X0091368Y0131039D01*
X0089961Y0129632D01*
X0089200Y0127795D01*
X0089200Y0125805D01*
X0089961Y0123968D01*
X0091368Y0122561D01*
X0093205Y0121800D01*
X0091368Y0121039D01*
X0089961Y0119632D01*
X0089200Y0117795D01*
X0089200Y0115805D01*
X0089961Y0113968D01*
X0091368Y0112561D01*
X0093205Y0111800D01*
X0100395Y0111800D01*
X0102232Y0112561D01*
X0103639Y0113968D01*
X0104400Y0115805D01*
X0104400Y0117795D01*
X0103639Y0119632D01*
X0102232Y0121039D01*
X0100395Y0121800D01*
X0093205Y0121800D01*
X0100395Y0121800D01*
X0102232Y0122561D01*
X0103639Y0123968D01*
X0104400Y0125805D01*
X0104400Y0127795D01*
X0103639Y0129632D01*
X0102232Y0131039D01*
X0100395Y0131800D01*
X0093205Y0131800D01*
X0100395Y0131800D01*
X0102232Y0132561D01*
X0103639Y0133968D01*
X0104400Y0135805D01*
X0104400Y0137795D01*
X0103639Y0139632D01*
X0102232Y0141039D01*
X0100395Y0141800D01*
X0102232Y0142561D01*
X0103639Y0143968D01*
X0104400Y0145805D01*
X0104400Y0147795D01*
X0103639Y0149632D01*
X0102232Y0151039D01*
X0100395Y0151800D01*
X0102232Y0152561D01*
X0103639Y0153968D01*
X0104400Y0155805D01*
X0104400Y0157795D01*
X0103639Y0159632D01*
X0102232Y0161039D01*
X0100395Y0161800D01*
X0093205Y0161800D01*
X0091368Y0161039D01*
X0089961Y0159632D01*
X0089200Y0157795D01*
X0089200Y0155805D01*
X0089961Y0153968D01*
X0091368Y0152561D01*
X0093205Y0151800D01*
X0100395Y0151800D01*
X0093205Y0151800D01*
X0091368Y0151039D01*
X0090329Y0150000D01*
X0053125Y0150000D01*
X0030000Y0173125D01*
X0030000Y0181800D01*
X0033871Y0181800D01*
X0036800Y0184729D01*
X0039729Y0181800D01*
X0043871Y0181800D01*
X0046800Y0184729D01*
X0046800Y0188871D01*
X0043871Y0191800D01*
X0039729Y0191800D01*
X0036800Y0188871D01*
X0036800Y0184729D01*
X0036800Y0188871D01*
X0033871Y0191800D01*
X0030000Y0191800D01*
X0030000Y0196523D01*
X0030255Y0196629D01*
X0031971Y0198345D01*
X0032168Y0198819D01*
X0032605Y0198217D01*
X0033217Y0197605D01*
X0033917Y0197096D01*
X0034689Y0196703D01*
X0035512Y0196435D01*
X0036367Y0196300D01*
X0036600Y0196300D01*
X0036600Y0201600D01*
X0037000Y0201600D01*
X0037000Y0196300D01*
X0037233Y0196300D01*
X0038088Y0196435D01*
X0038911Y0196703D01*
X0039683Y0197096D01*
X0040383Y0197605D01*
X0040995Y0198217D01*
X0041432Y0198819D01*
X0041629Y0198345D01*
X0043345Y0196629D01*
X0045587Y0195700D01*
X0048013Y0195700D01*
X0050255Y0196629D01*
X0051800Y0198173D01*
X0053345Y0196629D01*
X0055587Y0195700D01*
X0058013Y0195700D01*
X0060255Y0196629D01*
X0061971Y0198345D01*
X0062900Y0200587D01*
X0062900Y0203013D01*
X0061971Y0205255D01*
X0060976Y0206250D01*
X0206250Y0206250D01*
X0206250Y0152388D01*
X0205013Y0152900D01*
X0202587Y0152900D01*
X0200345Y0151971D01*
X0198629Y0150255D01*
X0197700Y0148013D01*
X0197700Y0145587D01*
X0198629Y0143345D01*
X0200173Y0141800D01*
X0198629Y0140255D01*
X0197700Y0138013D01*
X0197700Y0135587D01*
X0198629Y0133345D01*
X0200173Y0131800D01*
X0198629Y0130255D01*
X0197700Y0128013D01*
X0197700Y0125587D01*
X0198629Y0123345D01*
X0200173Y0121800D01*
X0198629Y0120255D01*
X0197700Y0118013D01*
X0197700Y0115587D01*
X0197806Y0115331D01*
X0162475Y0080000D01*
X0146200Y0080000D01*
X0146200Y0081800D01*
X0146200Y0083623D01*
X0143623Y0086200D01*
X0141800Y0086200D01*
X0141800Y0081800D01*
X0141800Y0081800D01*
X0146200Y0081800D01*
X0141800Y0081800D01*
X0141800Y0081800D01*
X0141800Y0081800D01*
X0137400Y0081800D01*
X0137400Y0083623D01*
X0139977Y0086200D01*
X0141800Y0086200D01*
X0141800Y0081800D01*
X0137400Y0081800D01*
X0137400Y0080000D01*
X0133271Y0080000D01*
X0132232Y0081039D01*
X0130395Y0081800D01*
X0123205Y0081800D01*
X0121368Y0081039D01*
X0119961Y0079632D01*
X0119200Y0077795D01*
X0119200Y0075805D01*
X0119961Y0073968D01*
X0121368Y0072561D01*
X0123205Y0071800D01*
X0130395Y0071800D01*
X0132232Y0071039D01*
X0133271Y0070000D01*
X0162475Y0070000D01*
X0197806Y0105331D01*
X0197700Y0105587D01*
X0197700Y0106175D01*
X0165613Y0074087D01*
X0164437Y0073600D01*
X0133271Y0073600D01*
X0132232Y0072561D01*
X0130395Y0071800D01*
X0123205Y0071800D01*
X0121368Y0071039D01*
X0119961Y0069632D01*
X0119200Y0067795D01*
X0119200Y0065805D01*
X0119961Y0063968D01*
X0121368Y0062561D01*
X0123205Y0061800D01*
X0121368Y0061039D01*
X0119961Y0059632D01*
X0119200Y0057795D01*
X0119200Y0055805D01*
X0119961Y0053968D01*
X0121368Y0052561D01*
X0123205Y0051800D01*
X0121368Y0051039D01*
X0119961Y0049632D01*
X0119200Y0047795D01*
X0119200Y0045805D01*
X0119961Y0043968D01*
X0121368Y0042561D01*
X0123205Y0041800D01*
X0130395Y0041800D01*
X0132232Y0042561D01*
X0133271Y0043600D01*
X0164437Y0043600D01*
X0165613Y0044087D01*
X0166513Y0044987D01*
X0198525Y0077000D01*
X0203600Y0077000D01*
X0203600Y0076600D01*
X0204000Y0076600D01*
X0204000Y0071300D01*
X0204233Y0071300D01*
X0205088Y0071435D01*
X0205911Y0071703D01*
X0206250Y0071876D01*
X0206250Y0014200D01*
X0014200Y0014200D01*
X0014200Y0071952D01*
X0014689Y0071703D01*
X0015512Y0071435D01*
X0016367Y0071300D01*
X0016600Y0071300D01*
X0016600Y0076600D01*
X0017000Y0076600D01*
X0017000Y0077000D01*
X0022300Y0077000D01*
X0022300Y0077233D01*
X0022165Y0078088D01*
X0021897Y0078911D01*
X0021504Y0079683D01*
X0020995Y0080383D01*
X0020383Y0080995D01*
X0019781Y0081432D01*
X0020255Y0081629D01*
X0021971Y0083345D01*
X0022077Y0083600D01*
X0035475Y0083600D01*
X0036800Y0082275D01*
X0036800Y0079729D01*
X0039729Y0076800D01*
X0042275Y0076800D01*
X0064087Y0054987D01*
X0064987Y0054087D01*
X0066163Y0053600D01*
X0077929Y0053600D01*
X0079729Y0051800D01*
X0083871Y0051800D01*
X0085432Y0053361D02*
X0090568Y0053361D01*
X0089550Y0054960D02*
X0086800Y0054960D01*
X0086800Y0056558D02*
X0089200Y0056558D01*
X0089350Y0058157D02*
X0086800Y0058157D01*
X0085916Y0059755D02*
X0090084Y0059755D01*
X0092128Y0061354D02*
X0084317Y0061354D01*
X0079283Y0061354D02*
X0066772Y0061354D01*
X0065173Y0062952D02*
X0090977Y0062952D01*
X0089720Y0064551D02*
X0063575Y0064551D01*
X0061976Y0066149D02*
X0089200Y0066149D01*
X0089200Y0067748D02*
X0060378Y0067748D01*
X0058779Y0069346D02*
X0089843Y0069346D01*
X0091274Y0070945D02*
X0057181Y0070945D01*
X0055582Y0072543D02*
X0091411Y0072543D01*
X0089889Y0074142D02*
X0053984Y0074142D01*
X0052385Y0075740D02*
X0089227Y0075740D01*
X0089200Y0077339D02*
X0050787Y0077339D01*
X0051800Y0078937D02*
X0051800Y0078937D01*
X0051800Y0080536D02*
X0051800Y0080536D01*
X0051800Y0082134D02*
X0051800Y0082134D01*
X0051800Y0083733D02*
X0051800Y0083733D01*
X0051800Y0085332D02*
X0051800Y0085332D01*
X0054491Y0085332D02*
X0075806Y0085332D01*
X0075700Y0085587D02*
X0076629Y0083345D01*
X0078345Y0081629D01*
X0080587Y0080700D01*
X0083013Y0080700D01*
X0085255Y0081629D01*
X0086971Y0083345D01*
X0087900Y0085587D01*
X0087900Y0088013D01*
X0086971Y0090255D01*
X0085255Y0091971D01*
X0084781Y0092168D01*
X0085383Y0092605D01*
X0085995Y0093217D01*
X0086504Y0093917D01*
X0086897Y0094689D01*
X0087165Y0095512D01*
X0087300Y0096367D01*
X0087300Y0096600D01*
X0082000Y0096600D01*
X0082000Y0097000D01*
X0087300Y0097000D01*
X0087300Y0097233D01*
X0087165Y0098088D01*
X0086897Y0098911D01*
X0086504Y0099683D01*
X0085995Y0100383D01*
X0085383Y0100995D01*
X0084781Y0101432D01*
X0085255Y0101629D01*
X0086971Y0103345D01*
X0087900Y0105587D01*
X0087900Y0108013D01*
X0086971Y0110255D01*
X0085255Y0111971D01*
X0083013Y0112900D01*
X0080587Y0112900D01*
X0078345Y0111971D01*
X0076629Y0110255D01*
X0075700Y0108013D01*
X0075700Y0105587D01*
X0076629Y0103345D01*
X0078345Y0101629D01*
X0078819Y0101432D01*
X0078217Y0100995D01*
X0077605Y0100383D01*
X0077096Y0099683D01*
X0076703Y0098911D01*
X0076435Y0098088D01*
X0076300Y0097233D01*
X0076300Y0097000D01*
X0081600Y0097000D01*
X0081600Y0096600D01*
X0076300Y0096600D01*
X0076300Y0096367D01*
X0076435Y0095512D01*
X0076703Y0094689D01*
X0077096Y0093917D01*
X0077605Y0093217D01*
X0078217Y0092605D01*
X0078819Y0092168D01*
X0078345Y0091971D01*
X0076629Y0090255D01*
X0075700Y0088013D01*
X0075700Y0085587D01*
X0075700Y0086930D02*
X0041195Y0086930D01*
X0039597Y0088529D02*
X0075913Y0088529D01*
X0076576Y0090127D02*
X0022024Y0090127D01*
X0020501Y0091726D02*
X0078099Y0091726D01*
X0077527Y0093324D02*
X0021951Y0093324D01*
X0022625Y0094923D02*
X0076627Y0094923D01*
X0076300Y0096521D02*
X0022900Y0096521D01*
X0022856Y0098120D02*
X0076446Y0098120D01*
X0077122Y0099718D02*
X0022194Y0099718D01*
X0020910Y0101317D02*
X0078659Y0101317D01*
X0077058Y0102915D02*
X0021542Y0102915D01*
X0022456Y0104514D02*
X0076144Y0104514D01*
X0075700Y0106112D02*
X0022900Y0106112D01*
X0022900Y0107711D02*
X0075700Y0107711D01*
X0076237Y0109309D02*
X0022363Y0109309D01*
X0021319Y0110908D02*
X0077281Y0110908D01*
X0079636Y0112506D02*
X0021133Y0112506D01*
X0022286Y0114105D02*
X0089904Y0114105D01*
X0089242Y0115703D02*
X0022900Y0115703D01*
X0022900Y0117302D02*
X0089200Y0117302D01*
X0089658Y0118900D02*
X0022533Y0118900D01*
X0021728Y0120499D02*
X0090828Y0120499D01*
X0092488Y0122097D02*
X0020724Y0122097D01*
X0022117Y0123696D02*
X0090233Y0123696D01*
X0089412Y0125294D02*
X0022779Y0125294D01*
X0022900Y0126893D02*
X0089200Y0126893D01*
X0089489Y0128491D02*
X0022702Y0128491D01*
X0022040Y0130090D02*
X0090419Y0130090D01*
X0092936Y0131688D02*
X0020538Y0131688D01*
X0021914Y0133287D02*
X0090642Y0133287D01*
X0090329Y0140000D02*
X0048125Y0140000D01*
X0020000Y0168125D01*
X0020000Y0181800D01*
X0023600Y0181800D01*
X0023600Y0171163D01*
X0024087Y0169987D01*
X0049087Y0144987D01*
X0049987Y0144087D01*
X0051163Y0143600D01*
X0090329Y0143600D01*
X0091368Y0142561D01*
X0093205Y0141800D01*
X0100395Y0141800D01*
X0093205Y0141800D01*
X0091368Y0141039D01*
X0090329Y0140000D01*
X0091949Y0141279D02*
X0046846Y0141279D01*
X0045248Y0142878D02*
X0091051Y0142878D01*
X0096800Y0146800D02*
X0051800Y0146800D01*
X0026800Y0171800D01*
X0026800Y0201800D01*
X0030854Y0197227D02*
X0033737Y0197227D01*
X0030000Y0195629D02*
X0080700Y0195629D01*
X0080700Y0195587D02*
X0081629Y0193345D01*
X0083345Y0191629D01*
X0085587Y0190700D01*
X0088013Y0190700D01*
X0090255Y0191629D01*
X0091971Y0193345D01*
X0092900Y0195587D01*
X0092900Y0198013D01*
X0091971Y0200255D01*
X0090255Y0201971D01*
X0088013Y0202900D01*
X0085587Y0202900D01*
X0083345Y0201971D01*
X0081629Y0200255D01*
X0080700Y0198013D01*
X0080700Y0195587D01*
X0080700Y0197227D02*
X0060854Y0197227D01*
X0062171Y0198826D02*
X0081037Y0198826D01*
X0081798Y0200424D02*
X0062833Y0200424D01*
X0062900Y0202023D02*
X0083469Y0202023D01*
X0090131Y0202023D02*
X0105076Y0202023D01*
X0104689Y0201897D02*
X0105512Y0202165D01*
X0106367Y0202300D01*
X0106600Y0202300D01*
X0106600Y0197000D01*
X0107000Y0197000D01*
X0107000Y0202300D01*
X0107233Y0202300D01*
X0108088Y0202165D01*
X0108911Y0201897D01*
X0109683Y0201504D01*
X0110383Y0200995D01*
X0110995Y0200383D01*
X0111504Y0199683D01*
X0111897Y0198911D01*
X0112165Y0198088D01*
X0112300Y0197233D01*
X0112300Y0197000D01*
X0107000Y0197000D01*
X0107000Y0196600D01*
X0112300Y0196600D01*
X0112300Y0196367D01*
X0112165Y0195512D01*
X0111897Y0194689D01*
X0111504Y0193917D01*
X0110995Y0193217D01*
X0110383Y0192605D01*
X0109683Y0192096D01*
X0108911Y0191703D01*
X0108088Y0191435D01*
X0107233Y0191300D01*
X0107000Y0191300D01*
X0107000Y0196600D01*
X0106600Y0196600D01*
X0101300Y0196600D01*
X0101300Y0196367D01*
X0101435Y0195512D01*
X0101703Y0194689D01*
X0102096Y0193917D01*
X0102605Y0193217D01*
X0103217Y0192605D01*
X0103917Y0192096D01*
X0104689Y0191703D01*
X0105512Y0191435D01*
X0106367Y0191300D01*
X0106600Y0191300D01*
X0106600Y0196600D01*
X0106600Y0197000D01*
X0101300Y0197000D01*
X0101300Y0197233D01*
X0101435Y0198088D01*
X0101703Y0198911D01*
X0102096Y0199683D01*
X0102605Y0200383D01*
X0103217Y0200995D01*
X0103917Y0201504D01*
X0104689Y0201897D01*
X0106600Y0202023D02*
X0107000Y0202023D01*
X0108524Y0202023D02*
X0206250Y0202023D01*
X0206250Y0203621D02*
X0062648Y0203621D01*
X0061986Y0205220D02*
X0206250Y0205220D01*
X0206250Y0200424D02*
X0129398Y0200424D01*
X0128623Y0201200D02*
X0126800Y0201200D01*
X0126800Y0196800D01*
X0126800Y0196800D01*
X0131200Y0196800D01*
X0131200Y0198623D01*
X0128623Y0201200D01*
X0126800Y0201200D02*
X0124977Y0201200D01*
X0122400Y0198623D01*
X0122400Y0196800D01*
X0126800Y0196800D01*
X0126800Y0196800D01*
X0126800Y0196800D01*
X0126800Y0201200D01*
X0126800Y0200424D02*
X0126800Y0200424D01*
X0126800Y0198826D02*
X0126800Y0198826D01*
X0126800Y0197227D02*
X0126800Y0197227D01*
X0126800Y0196800D02*
X0122400Y0196800D01*
X0122400Y0194977D01*
X0124977Y0192400D01*
X0126800Y0192400D01*
X0128623Y0192400D01*
X0131200Y0194977D01*
X0131200Y0196800D01*
X0126800Y0196800D01*
X0126800Y0192400D01*
X0126800Y0196800D01*
X0126800Y0196800D01*
X0126800Y0195629D02*
X0126800Y0195629D01*
X0126800Y0194030D02*
X0126800Y0194030D01*
X0126800Y0192432D02*
X0126800Y0192432D01*
X0128654Y0192432D02*
X0206250Y0192432D01*
X0206250Y0194030D02*
X0130253Y0194030D01*
X0131200Y0195629D02*
X0206250Y0195629D01*
X0206250Y0197227D02*
X0131200Y0197227D01*
X0130997Y0198826D02*
X0206250Y0198826D01*
X0206250Y0190833D02*
X0129838Y0190833D01*
X0128871Y0191800D02*
X0124729Y0191800D01*
X0121800Y0188871D01*
X0121800Y0184729D01*
X0124729Y0181800D01*
X0128871Y0181800D01*
X0131800Y0184729D01*
X0131800Y0188871D01*
X0128871Y0191800D01*
X0131436Y0189235D02*
X0206250Y0189235D01*
X0206250Y0187636D02*
X0131800Y0187636D01*
X0131800Y0186038D02*
X0206250Y0186038D01*
X0206250Y0184439D02*
X0131510Y0184439D01*
X0129912Y0182841D02*
X0206250Y0182841D01*
X0206250Y0181242D02*
X0131741Y0181242D01*
X0132232Y0181039D02*
X0130395Y0181800D01*
X0123205Y0181800D01*
X0121368Y0181039D01*
X0119961Y0179632D01*
X0119200Y0177795D01*
X0119200Y0175805D01*
X0119961Y0173968D01*
X0121368Y0172561D01*
X0123205Y0171800D01*
X0130395Y0171800D01*
X0132232Y0172561D01*
X0133639Y0173968D01*
X0134400Y0175805D01*
X0134400Y0177795D01*
X0133639Y0179632D01*
X0132232Y0181039D01*
X0133627Y0179644D02*
X0206250Y0179644D01*
X0206250Y0178045D02*
X0134296Y0178045D01*
X0134400Y0176447D02*
X0206250Y0176447D01*
X0206250Y0174848D02*
X0134003Y0174848D01*
X0132921Y0173250D02*
X0206250Y0173250D01*
X0206250Y0171651D02*
X0100754Y0171651D01*
X0100395Y0171800D02*
X0102232Y0171039D01*
X0103639Y0169632D01*
X0104400Y0167795D01*
X0104400Y0165805D01*
X0103639Y0163968D01*
X0102232Y0162561D01*
X0100395Y0161800D01*
X0093205Y0161800D01*
X0091368Y0162561D01*
X0089961Y0163968D01*
X0089200Y0165805D01*
X0089200Y0167795D01*
X0089961Y0169632D01*
X0091368Y0171039D01*
X0093205Y0171800D01*
X0100395Y0171800D01*
X0102232Y0172561D01*
X0103639Y0173968D01*
X0104400Y0175805D01*
X0104400Y0177795D01*
X0103639Y0179632D01*
X0102232Y0181039D01*
X0100395Y0181800D01*
X0093205Y0181800D01*
X0091368Y0181039D01*
X0090500Y0180171D01*
X0088871Y0181800D01*
X0084729Y0181800D01*
X0081800Y0178871D01*
X0081800Y0174729D01*
X0084729Y0171800D01*
X0088871Y0171800D01*
X0090500Y0173429D01*
X0091368Y0172561D01*
X0093205Y0171800D01*
X0100395Y0171800D01*
X0102921Y0173250D02*
X0120679Y0173250D01*
X0119597Y0174848D02*
X0104003Y0174848D01*
X0104400Y0176447D02*
X0119200Y0176447D01*
X0119304Y0178045D02*
X0104296Y0178045D01*
X0103627Y0179644D02*
X0119973Y0179644D01*
X0121859Y0181242D02*
X0101741Y0181242D01*
X0091859Y0181242D02*
X0089429Y0181242D01*
X0086200Y0184977D02*
X0086200Y0186800D01*
X0086200Y0188623D01*
X0083623Y0191200D01*
X0081800Y0191200D01*
X0081800Y0186800D01*
X0086200Y0186800D01*
X0081800Y0186800D01*
X0081800Y0186800D01*
X0081800Y0186800D01*
X0081800Y0182400D01*
X0083623Y0182400D01*
X0086200Y0184977D01*
X0085662Y0184439D02*
X0122090Y0184439D01*
X0121800Y0186038D02*
X0086200Y0186038D01*
X0086200Y0187636D02*
X0121800Y0187636D01*
X0122164Y0189235D02*
X0085588Y0189235D01*
X0085265Y0190833D02*
X0083989Y0190833D01*
X0082542Y0192432D02*
X0030000Y0192432D01*
X0030000Y0194030D02*
X0081345Y0194030D01*
X0081800Y0191200D02*
X0079977Y0191200D01*
X0077400Y0188623D01*
X0077400Y0186800D01*
X0081800Y0186800D01*
X0081800Y0186800D01*
X0081800Y0186800D01*
X0081800Y0191200D01*
X0081800Y0190833D02*
X0081800Y0190833D01*
X0081800Y0189235D02*
X0081800Y0189235D01*
X0081800Y0187636D02*
X0081800Y0187636D01*
X0081800Y0186800D02*
X0077400Y0186800D01*
X0077400Y0184977D01*
X0079977Y0182400D01*
X0081800Y0182400D01*
X0081800Y0186800D01*
X0081800Y0186038D02*
X0081800Y0186038D01*
X0081800Y0184439D02*
X0081800Y0184439D01*
X0081800Y0182841D02*
X0081800Y0182841D01*
X0084063Y0182841D02*
X0123688Y0182841D01*
X0123762Y0190833D02*
X0088335Y0190833D01*
X0091058Y0192432D02*
X0103455Y0192432D01*
X0102038Y0194030D02*
X0092255Y0194030D01*
X0092900Y0195629D02*
X0101417Y0195629D01*
X0101300Y0197227D02*
X0092900Y0197227D01*
X0092563Y0198826D02*
X0101675Y0198826D01*
X0102646Y0200424D02*
X0091802Y0200424D01*
X0106600Y0200424D02*
X0107000Y0200424D01*
X0107000Y0198826D02*
X0106600Y0198826D01*
X0106600Y0197227D02*
X0107000Y0197227D01*
X0107000Y0195629D02*
X0106600Y0195629D01*
X0106600Y0194030D02*
X0107000Y0194030D01*
X0107000Y0192432D02*
X0106600Y0192432D01*
X0110145Y0192432D02*
X0124946Y0192432D01*
X0123347Y0194030D02*
X0111562Y0194030D01*
X0112183Y0195629D02*
X0122400Y0195629D01*
X0122400Y0197227D02*
X0112300Y0197227D01*
X0111925Y0198826D02*
X0122603Y0198826D01*
X0124202Y0200424D02*
X0110954Y0200424D01*
X0084171Y0181242D02*
X0049429Y0181242D01*
X0048871Y0181800D02*
X0044729Y0181800D01*
X0041800Y0178871D01*
X0041800Y0174729D01*
X0044729Y0171800D01*
X0048871Y0171800D01*
X0051800Y0174729D01*
X0051800Y0178871D01*
X0048871Y0181800D01*
X0051027Y0179644D02*
X0082573Y0179644D01*
X0081800Y0178045D02*
X0051800Y0178045D01*
X0051800Y0176447D02*
X0081800Y0176447D01*
X0081800Y0174848D02*
X0051800Y0174848D01*
X0050321Y0173250D02*
X0083279Y0173250D01*
X0090321Y0173250D02*
X0090679Y0173250D01*
X0092846Y0171651D02*
X0031474Y0171651D01*
X0030000Y0173250D02*
X0043279Y0173250D01*
X0041800Y0174848D02*
X0030000Y0174848D01*
X0030000Y0176447D02*
X0041800Y0176447D01*
X0041800Y0178045D02*
X0030000Y0178045D01*
X0030000Y0179644D02*
X0042573Y0179644D01*
X0044171Y0181242D02*
X0030000Y0181242D01*
X0034912Y0182841D02*
X0038688Y0182841D01*
X0037090Y0184439D02*
X0036510Y0184439D01*
X0036800Y0186038D02*
X0036800Y0186038D01*
X0036800Y0187636D02*
X0036800Y0187636D01*
X0036436Y0189235D02*
X0037164Y0189235D01*
X0038762Y0190833D02*
X0034838Y0190833D01*
X0036600Y0197227D02*
X0037000Y0197227D01*
X0037000Y0198826D02*
X0036600Y0198826D01*
X0036600Y0200424D02*
X0037000Y0200424D01*
X0039863Y0197227D02*
X0042746Y0197227D01*
X0044838Y0190833D02*
X0079611Y0190833D01*
X0078012Y0189235D02*
X0046436Y0189235D01*
X0046800Y0187636D02*
X0077400Y0187636D01*
X0077400Y0186038D02*
X0046800Y0186038D01*
X0046510Y0184439D02*
X0077938Y0184439D01*
X0079537Y0182841D02*
X0044912Y0182841D01*
X0033073Y0170053D02*
X0090382Y0170053D01*
X0089473Y0168454D02*
X0034671Y0168454D01*
X0036270Y0166856D02*
X0089200Y0166856D01*
X0089427Y0165257D02*
X0037868Y0165257D01*
X0039467Y0163659D02*
X0090270Y0163659D01*
X0092578Y0162060D02*
X0041065Y0162060D01*
X0042664Y0160462D02*
X0090790Y0160462D01*
X0089643Y0158863D02*
X0044262Y0158863D01*
X0045861Y0157265D02*
X0089200Y0157265D01*
X0089258Y0155666D02*
X0047459Y0155666D01*
X0049058Y0154068D02*
X0089920Y0154068D01*
X0091590Y0152469D02*
X0050656Y0152469D01*
X0052255Y0150870D02*
X0091199Y0150870D01*
X0102010Y0152469D02*
X0121590Y0152469D01*
X0121368Y0152561D02*
X0123205Y0151800D01*
X0130395Y0151800D01*
X0132232Y0152561D01*
X0133639Y0153968D01*
X0134400Y0155805D01*
X0134400Y0157795D01*
X0133639Y0159632D01*
X0132232Y0161039D01*
X0130395Y0161800D01*
X0123205Y0161800D01*
X0121368Y0161039D01*
X0119961Y0159632D01*
X0119200Y0157795D01*
X0119200Y0155805D01*
X0119961Y0153968D01*
X0121368Y0152561D01*
X0121368Y0151039D02*
X0123205Y0151800D01*
X0130395Y0151800D01*
X0132232Y0151039D01*
X0133639Y0149632D01*
X0134400Y0147795D01*
X0134400Y0145805D01*
X0133639Y0143968D01*
X0132232Y0142561D01*
X0130395Y0141800D01*
X0123205Y0141800D01*
X0121368Y0142561D01*
X0119961Y0143968D01*
X0119200Y0145805D01*
X0119200Y0147795D01*
X0119961Y0149632D01*
X0121368Y0151039D01*
X0121199Y0150870D02*
X0102401Y0150870D01*
X0103788Y0149272D02*
X0119812Y0149272D01*
X0119200Y0147673D02*
X0104400Y0147673D01*
X0104400Y0146075D02*
X0119200Y0146075D01*
X0119750Y0144476D02*
X0103849Y0144476D01*
X0102549Y0142878D02*
X0121051Y0142878D01*
X0121949Y0141279D02*
X0101651Y0141279D01*
X0103590Y0139681D02*
X0120010Y0139681D01*
X0119961Y0139632D02*
X0119200Y0137795D01*
X0119200Y0135805D01*
X0119961Y0133968D01*
X0121368Y0132561D01*
X0123205Y0131800D01*
X0130395Y0131800D01*
X0132232Y0132561D01*
X0133639Y0133968D01*
X0134400Y0135805D01*
X0134400Y0137795D01*
X0133639Y0139632D01*
X0132232Y0141039D01*
X0130395Y0141800D01*
X0123205Y0141800D01*
X0121368Y0141039D01*
X0119961Y0139632D01*
X0119319Y0138082D02*
X0104281Y0138082D01*
X0104400Y0136484D02*
X0119200Y0136484D01*
X0119581Y0134885D02*
X0104019Y0134885D01*
X0102958Y0133287D02*
X0120642Y0133287D01*
X0121368Y0131039D02*
X0119961Y0129632D01*
X0119200Y0127795D01*
X0119200Y0125805D01*
X0119961Y0123968D01*
X0121368Y0122561D01*
X0123205Y0121800D01*
X0130395Y0121800D01*
X0132232Y0122561D01*
X0133639Y0123968D01*
X0134400Y0125805D01*
X0134400Y0127795D01*
X0133639Y0129632D01*
X0132232Y0131039D01*
X0130395Y0131800D01*
X0123205Y0131800D01*
X0121368Y0131039D01*
X0120419Y0130090D02*
X0103181Y0130090D01*
X0104111Y0128491D02*
X0119489Y0128491D01*
X0119200Y0126893D02*
X0104400Y0126893D01*
X0104188Y0125294D02*
X0119412Y0125294D01*
X0120233Y0123696D02*
X0103367Y0123696D01*
X0101112Y0122097D02*
X0122488Y0122097D01*
X0123205Y0121800D02*
X0121368Y0121039D01*
X0119961Y0119632D01*
X0119200Y0117795D01*
X0119200Y0115805D01*
X0119961Y0113968D01*
X0121368Y0112561D01*
X0123205Y0111800D01*
X0130395Y0111800D01*
X0132232Y0112561D01*
X0133639Y0113968D01*
X0134400Y0115805D01*
X0134400Y0117795D01*
X0133639Y0119632D01*
X0132232Y0121039D01*
X0130395Y0121800D01*
X0123205Y0121800D01*
X0120828Y0120499D02*
X0102772Y0120499D01*
X0103942Y0118900D02*
X0119658Y0118900D01*
X0119200Y0117302D02*
X0104400Y0117302D01*
X0104358Y0115703D02*
X0119242Y0115703D01*
X0119904Y0114105D02*
X0103696Y0114105D01*
X0102099Y0112506D02*
X0121500Y0112506D01*
X0121368Y0111039D02*
X0123205Y0111800D01*
X0130395Y0111800D01*
X0132232Y0111039D01*
X0133639Y0109632D01*
X0134400Y0107795D01*
X0134400Y0105805D01*
X0133639Y0103968D01*
X0132232Y0102561D01*
X0130395Y0101800D01*
X0123205Y0101800D01*
X0121368Y0102561D01*
X0119961Y0103968D01*
X0119200Y0105805D01*
X0119200Y0107795D01*
X0119961Y0109632D01*
X0121368Y0111039D01*
X0121237Y0110908D02*
X0100996Y0110908D01*
X0101089Y0110878D02*
X0100430Y0111092D01*
X0099746Y0111200D01*
X0096800Y0111200D01*
X0096800Y0106800D01*
X0096800Y0106800D01*
X0103800Y0106800D01*
X0103800Y0107146D01*
X0103692Y0107830D01*
X0103478Y0108489D01*
X0103163Y0109106D01*
X0102756Y0109666D01*
X0102266Y0110156D01*
X0101706Y0110563D01*
X0101089Y0110878D01*
X0103016Y0109309D02*
X0119827Y0109309D01*
X0119200Y0107711D02*
X0103711Y0107711D01*
X0103800Y0106800D02*
X0096800Y0106800D01*
X0096800Y0106800D01*
X0096800Y0106800D01*
X0089800Y0106800D01*
X0089800Y0107146D01*
X0089908Y0107830D01*
X0090122Y0108489D01*
X0090437Y0109106D01*
X0090844Y0109666D01*
X0091334Y0110156D01*
X0091894Y0110563D01*
X0092511Y0110878D01*
X0093170Y0111092D01*
X0093854Y0111200D01*
X0096800Y0111200D01*
X0096800Y0106800D01*
X0096800Y0102400D01*
X0099746Y0102400D01*
X0100430Y0102508D01*
X0101089Y0102722D01*
X0101706Y0103037D01*
X0102266Y0103444D01*
X0102756Y0103934D01*
X0103163Y0104494D01*
X0103478Y0105111D01*
X0103692Y0105770D01*
X0103800Y0106454D01*
X0103800Y0106800D01*
X0103746Y0106112D02*
X0119200Y0106112D01*
X0119735Y0104514D02*
X0103173Y0104514D01*
X0101467Y0102915D02*
X0121014Y0102915D01*
X0122039Y0101317D02*
X0101561Y0101317D01*
X0103553Y0099718D02*
X0120047Y0099718D01*
X0119961Y0099632D02*
X0119200Y0097795D01*
X0119200Y0095805D01*
X0119961Y0093968D01*
X0121368Y0092561D01*
X0123205Y0091800D01*
X0130395Y0091800D01*
X0132232Y0092561D01*
X0133639Y0093968D01*
X0134400Y0095805D01*
X0134400Y0097795D01*
X0133639Y0099632D01*
X0132232Y0101039D01*
X0130395Y0101800D01*
X0123205Y0101800D01*
X0121368Y0101039D01*
X0119961Y0099632D01*
X0119335Y0098120D02*
X0104265Y0098120D01*
X0104400Y0096521D02*
X0119200Y0096521D01*
X0119566Y0094923D02*
X0104034Y0094923D01*
X0102995Y0093324D02*
X0120605Y0093324D01*
X0121894Y0090563D02*
X0121334Y0090156D01*
X0120844Y0089666D01*
X0120437Y0089106D01*
X0120122Y0088489D01*
X0119908Y0087830D01*
X0119800Y0087146D01*
X0119800Y0086800D01*
X0126800Y0086800D01*
X0126800Y0086800D01*
X0126800Y0091200D01*
X0129746Y0091200D01*
X0130430Y0091092D01*
X0131089Y0090878D01*
X0131706Y0090563D01*
X0132266Y0090156D01*
X0132756Y0089666D01*
X0133163Y0089106D01*
X0133478Y0088489D01*
X0133692Y0087830D01*
X0133800Y0087146D01*
X0133800Y0086800D01*
X0126800Y0086800D01*
X0126800Y0086800D01*
X0126800Y0082400D01*
X0129746Y0082400D01*
X0130430Y0082508D01*
X0131089Y0082722D01*
X0131706Y0083037D01*
X0132266Y0083444D01*
X0132756Y0083934D01*
X0133163Y0084494D01*
X0133478Y0085111D01*
X0133692Y0085770D01*
X0133800Y0086454D01*
X0133800Y0086800D01*
X0126800Y0086800D01*
X0126800Y0086800D01*
X0126800Y0086800D01*
X0126800Y0091200D01*
X0123854Y0091200D01*
X0123170Y0091092D01*
X0122511Y0090878D01*
X0121894Y0090563D01*
X0121305Y0090127D02*
X0103144Y0090127D01*
X0104096Y0088529D02*
X0120143Y0088529D01*
X0119800Y0086930D02*
X0104400Y0086930D01*
X0104204Y0085332D02*
X0120051Y0085332D01*
X0120122Y0085111D02*
X0120437Y0084494D01*
X0120844Y0083934D01*
X0121334Y0083444D01*
X0121894Y0083037D01*
X0122511Y0082722D01*
X0123170Y0082508D01*
X0123854Y0082400D01*
X0126800Y0082400D01*
X0126800Y0086800D01*
X0119800Y0086800D01*
X0119800Y0086454D01*
X0119908Y0085770D01*
X0120122Y0085111D01*
X0121044Y0083733D02*
X0103404Y0083733D01*
X0101202Y0082134D02*
X0137400Y0082134D01*
X0137400Y0080536D02*
X0132735Y0080536D01*
X0132556Y0083733D02*
X0137510Y0083733D01*
X0139109Y0085332D02*
X0133549Y0085332D01*
X0133800Y0086930D02*
X0169405Y0086930D01*
X0171003Y0088529D02*
X0133457Y0088529D01*
X0132295Y0090127D02*
X0172602Y0090127D01*
X0174200Y0091726D02*
X0100574Y0091726D01*
X0093026Y0091726D02*
X0085501Y0091726D01*
X0086073Y0093324D02*
X0090605Y0093324D01*
X0089566Y0094923D02*
X0086973Y0094923D01*
X0087300Y0096521D02*
X0089200Y0096521D01*
X0089335Y0098120D02*
X0087154Y0098120D01*
X0086478Y0099718D02*
X0090047Y0099718D01*
X0092039Y0101317D02*
X0084941Y0101317D01*
X0086542Y0102915D02*
X0092133Y0102915D01*
X0091894Y0103037D02*
X0092511Y0102722D01*
X0093170Y0102508D01*
X0093854Y0102400D01*
X0096800Y0102400D01*
X0096800Y0106800D01*
X0096800Y0106800D01*
X0089800Y0106800D01*
X0089800Y0106454D01*
X0089908Y0105770D01*
X0090122Y0105111D01*
X0090437Y0104494D01*
X0090844Y0103934D01*
X0091334Y0103444D01*
X0091894Y0103037D01*
X0090427Y0104514D02*
X0087456Y0104514D01*
X0087900Y0106112D02*
X0089854Y0106112D01*
X0089889Y0107711D02*
X0087900Y0107711D01*
X0087363Y0109309D02*
X0090584Y0109309D01*
X0092604Y0110908D02*
X0086319Y0110908D01*
X0083964Y0112506D02*
X0091500Y0112506D01*
X0096800Y0110908D02*
X0096800Y0110908D01*
X0096800Y0109309D02*
X0096800Y0109309D01*
X0096800Y0107711D02*
X0096800Y0107711D01*
X0096800Y0106112D02*
X0096800Y0106112D01*
X0096800Y0104514D02*
X0096800Y0104514D01*
X0096800Y0102915D02*
X0096800Y0102915D01*
X0090456Y0090127D02*
X0087024Y0090127D01*
X0087687Y0088529D02*
X0089504Y0088529D01*
X0089200Y0086930D02*
X0087900Y0086930D01*
X0087794Y0085332D02*
X0089396Y0085332D01*
X0090196Y0083733D02*
X0087132Y0083733D01*
X0085761Y0082134D02*
X0092398Y0082134D01*
X0090865Y0080536D02*
X0056200Y0080536D01*
X0056200Y0082134D02*
X0077839Y0082134D01*
X0076468Y0083733D02*
X0056090Y0083733D01*
X0055160Y0078937D02*
X0089673Y0078937D01*
X0102189Y0072543D02*
X0121411Y0072543D01*
X0121274Y0070945D02*
X0102326Y0070945D01*
X0103757Y0069346D02*
X0119843Y0069346D01*
X0119200Y0067748D02*
X0104400Y0067748D01*
X0104400Y0066149D02*
X0119200Y0066149D01*
X0119720Y0064551D02*
X0103880Y0064551D01*
X0102623Y0062952D02*
X0120977Y0062952D01*
X0122128Y0061354D02*
X0101472Y0061354D01*
X0103516Y0059755D02*
X0120084Y0059755D01*
X0119350Y0058157D02*
X0104250Y0058157D01*
X0104400Y0056558D02*
X0119200Y0056558D01*
X0119550Y0054960D02*
X0104050Y0054960D01*
X0103032Y0053361D02*
X0120568Y0053361D01*
X0123116Y0051763D02*
X0100484Y0051763D01*
X0103107Y0050164D02*
X0120493Y0050164D01*
X0119519Y0048566D02*
X0104081Y0048566D01*
X0104400Y0046967D02*
X0119200Y0046967D01*
X0119381Y0045369D02*
X0104219Y0045369D01*
X0103441Y0043770D02*
X0120159Y0043770D01*
X0122308Y0042172D02*
X0101292Y0042172D01*
X0102477Y0036200D02*
X0099900Y0033623D01*
X0099900Y0031800D01*
X0104300Y0031800D01*
X0104300Y0031800D01*
X0104300Y0036200D01*
X0106123Y0036200D01*
X0108700Y0033623D01*
X0108700Y0031800D01*
X0104300Y0031800D01*
X0104300Y0031800D01*
X0104300Y0031800D01*
X0104300Y0036200D01*
X0102477Y0036200D01*
X0102055Y0035778D02*
X0091545Y0035778D01*
X0091123Y0036200D02*
X0093700Y0033623D01*
X0093700Y0031800D01*
X0089300Y0031800D01*
X0089300Y0031800D01*
X0089300Y0036200D01*
X0091123Y0036200D01*
X0089300Y0036200D02*
X0087477Y0036200D01*
X0084900Y0033623D01*
X0084900Y0031800D01*
X0089300Y0031800D01*
X0089300Y0031800D01*
X0089300Y0031800D01*
X0089300Y0036200D01*
X0089300Y0035778D02*
X0089300Y0035778D01*
X0089300Y0034179D02*
X0089300Y0034179D01*
X0089300Y0032581D02*
X0089300Y0032581D01*
X0089300Y0031800D02*
X0084900Y0031800D01*
X0084900Y0029977D01*
X0087477Y0027400D01*
X0089300Y0027400D01*
X0091123Y0027400D01*
X0093700Y0029977D01*
X0093700Y0031800D01*
X0089300Y0031800D01*
X0089300Y0027400D01*
X0089300Y0031800D01*
X0089300Y0031800D01*
X0089300Y0030982D02*
X0089300Y0030982D01*
X0089300Y0029384D02*
X0089300Y0029384D01*
X0089300Y0027785D02*
X0089300Y0027785D01*
X0091508Y0027785D02*
X0102092Y0027785D01*
X0102477Y0027400D02*
X0099900Y0029977D01*
X0099900Y0031800D01*
X0104300Y0031800D01*
X0108700Y0031800D01*
X0108700Y0030771D01*
X0109729Y0031800D01*
X0113871Y0031800D01*
X0116800Y0028871D01*
X0116800Y0024729D01*
X0113871Y0021800D01*
X0109729Y0021800D01*
X0109300Y0022229D01*
X0109300Y0019729D01*
X0106371Y0016800D01*
X0102229Y0016800D01*
X0099300Y0019729D01*
X0099300Y0023871D01*
X0102229Y0026800D01*
X0106371Y0026800D01*
X0106800Y0026371D01*
X0106800Y0028077D01*
X0106123Y0027400D01*
X0104300Y0027400D01*
X0104300Y0031800D01*
X0104300Y0031800D01*
X0104300Y0027400D01*
X0102477Y0027400D01*
X0101616Y0026187D02*
X0091984Y0026187D01*
X0091371Y0026800D02*
X0087229Y0026800D01*
X0084300Y0023871D01*
X0084300Y0019729D01*
X0087229Y0016800D01*
X0091371Y0016800D01*
X0094300Y0019729D01*
X0094300Y0023871D01*
X0091371Y0026800D01*
X0093106Y0029384D02*
X0100494Y0029384D01*
X0099900Y0030982D02*
X0093700Y0030982D01*
X0093700Y0032581D02*
X0099900Y0032581D01*
X0100457Y0034179D02*
X0093143Y0034179D01*
X0087055Y0035778D02*
X0044893Y0035778D01*
X0043871Y0036800D02*
X0039729Y0036800D01*
X0036800Y0033871D01*
X0036800Y0029729D01*
X0039729Y0026800D01*
X0036800Y0023871D01*
X0036800Y0019729D01*
X0039729Y0016800D01*
X0043871Y0016800D01*
X0046800Y0019729D01*
X0046800Y0023871D01*
X0043871Y0026800D01*
X0039729Y0026800D01*
X0043871Y0026800D01*
X0046800Y0029729D01*
X0046800Y0033871D01*
X0043871Y0036800D01*
X0046800Y0039729D01*
X0046800Y0043871D01*
X0043871Y0046800D01*
X0039729Y0046800D01*
X0037929Y0045000D01*
X0027077Y0045000D01*
X0026971Y0045255D01*
X0025255Y0046971D01*
X0023013Y0047900D01*
X0020587Y0047900D01*
X0018345Y0046971D01*
X0016629Y0045255D01*
X0015700Y0043013D01*
X0015700Y0040587D01*
X0016629Y0038345D01*
X0018345Y0036629D01*
X0020587Y0035700D01*
X0023013Y0035700D01*
X0025255Y0036629D01*
X0026971Y0038345D01*
X0027077Y0038600D01*
X0037929Y0038600D01*
X0039729Y0036800D01*
X0043871Y0036800D01*
X0044447Y0037376D02*
X0049153Y0037376D01*
X0047554Y0038975D02*
X0046046Y0038975D01*
X0046800Y0040573D02*
X0046800Y0040573D01*
X0046800Y0042172D02*
X0046800Y0042172D01*
X0046800Y0043770D02*
X0046800Y0043770D01*
X0045302Y0045369D02*
X0048298Y0045369D01*
X0055302Y0045369D02*
X0077400Y0045369D01*
X0077400Y0044977D02*
X0079977Y0042400D01*
X0081800Y0042400D01*
X0081800Y0046800D01*
X0081800Y0046800D01*
X0077400Y0046800D01*
X0077400Y0044977D01*
X0078607Y0043770D02*
X0056800Y0043770D01*
X0046492Y0034179D02*
X0085457Y0034179D01*
X0084900Y0032581D02*
X0046800Y0032581D01*
X0046800Y0030982D02*
X0054760Y0030982D01*
X0054977Y0031200D02*
X0052400Y0028623D01*
X0052400Y0026800D01*
X0056800Y0026800D01*
X0061200Y0026800D01*
X0061200Y0028623D01*
X0058623Y0031200D01*
X0056800Y0031200D01*
X0056800Y0026800D01*
X0056800Y0026800D01*
X0056800Y0026800D01*
X0061200Y0026800D01*
X0061200Y0024977D01*
X0058623Y0022400D01*
X0056800Y0022400D01*
X0056800Y0026800D01*
X0056800Y0026800D01*
X0056800Y0026800D01*
X0056800Y0031200D01*
X0054977Y0031200D01*
X0056800Y0030982D02*
X0056800Y0030982D01*
X0056800Y0029384D02*
X0056800Y0029384D01*
X0056800Y0027785D02*
X0056800Y0027785D01*
X0056800Y0026800D02*
X0052400Y0026800D01*
X0052400Y0024977D01*
X0054977Y0022400D01*
X0056800Y0022400D01*
X0056800Y0026800D01*
X0056800Y0026187D02*
X0056800Y0026187D01*
X0056800Y0024588D02*
X0056800Y0024588D01*
X0056800Y0022990D02*
X0056800Y0022990D01*
X0059212Y0022990D02*
X0073539Y0022990D01*
X0073968Y0022561D02*
X0075805Y0021800D01*
X0077795Y0021800D01*
X0079632Y0022561D01*
X0081039Y0023968D01*
X0081800Y0025805D01*
X0081800Y0027795D01*
X0081039Y0029632D01*
X0079632Y0031039D01*
X0077795Y0031800D01*
X0075805Y0031800D01*
X0073968Y0031039D01*
X0072561Y0029632D01*
X0071800Y0027795D01*
X0071800Y0025805D01*
X0072561Y0023968D01*
X0073968Y0022561D01*
X0072304Y0024588D02*
X0060811Y0024588D01*
X0061200Y0026187D02*
X0071800Y0026187D01*
X0071800Y0027785D02*
X0061200Y0027785D01*
X0060439Y0029384D02*
X0072458Y0029384D01*
X0073911Y0030982D02*
X0058840Y0030982D01*
X0053161Y0029384D02*
X0046455Y0029384D01*
X0044856Y0027785D02*
X0052400Y0027785D01*
X0052400Y0026187D02*
X0044484Y0026187D01*
X0046083Y0024588D02*
X0052789Y0024588D01*
X0054388Y0022990D02*
X0046800Y0022990D01*
X0046800Y0021391D02*
X0084300Y0021391D01*
X0084300Y0019793D02*
X0046800Y0019793D01*
X0045265Y0018194D02*
X0085835Y0018194D01*
X0084300Y0022990D02*
X0080061Y0022990D01*
X0081296Y0024588D02*
X0085017Y0024588D01*
X0086616Y0026187D02*
X0081800Y0026187D01*
X0081800Y0027785D02*
X0087092Y0027785D01*
X0085494Y0029384D02*
X0081142Y0029384D01*
X0079689Y0030982D02*
X0084900Y0030982D01*
X0093583Y0024588D02*
X0100017Y0024588D01*
X0099300Y0022990D02*
X0094300Y0022990D01*
X0094300Y0021391D02*
X0099300Y0021391D01*
X0099300Y0019793D02*
X0094300Y0019793D01*
X0092765Y0018194D02*
X0100835Y0018194D01*
X0107765Y0018194D02*
X0121683Y0018194D01*
X0122477Y0017400D02*
X0119900Y0019977D01*
X0119900Y0021800D01*
X0124300Y0021800D01*
X0124300Y0021800D01*
X0124300Y0021800D01*
X0124300Y0026200D01*
X0122477Y0026200D01*
X0119900Y0023623D01*
X0119900Y0021800D01*
X0124300Y0021800D01*
X0128700Y0021800D01*
X0128700Y0019977D01*
X0126123Y0017400D01*
X0124300Y0017400D01*
X0124300Y0021800D01*
X0124300Y0021800D01*
X0124300Y0017400D01*
X0122477Y0017400D01*
X0124300Y0018194D02*
X0124300Y0018194D01*
X0124300Y0019793D02*
X0124300Y0019793D01*
X0124300Y0021391D02*
X0124300Y0021391D01*
X0124300Y0022990D02*
X0124300Y0022990D01*
X0124300Y0024588D02*
X0124300Y0024588D01*
X0124300Y0026187D02*
X0124300Y0026187D01*
X0122464Y0026187D02*
X0116800Y0026187D01*
X0116800Y0027785D02*
X0121244Y0027785D01*
X0119645Y0029384D02*
X0116287Y0029384D01*
X0114689Y0030982D02*
X0119300Y0030982D01*
X0119300Y0032581D02*
X0108700Y0032581D01*
X0108700Y0030982D02*
X0108911Y0030982D01*
X0106800Y0027785D02*
X0106508Y0027785D01*
X0104300Y0027785D02*
X0104300Y0027785D01*
X0104300Y0029384D02*
X0104300Y0029384D01*
X0104300Y0030982D02*
X0104300Y0030982D01*
X0104300Y0032581D02*
X0104300Y0032581D01*
X0104300Y0034179D02*
X0104300Y0034179D01*
X0104300Y0035778D02*
X0104300Y0035778D01*
X0106545Y0035778D02*
X0121207Y0035778D01*
X0119608Y0034179D02*
X0108143Y0034179D01*
X0116659Y0024588D02*
X0120866Y0024588D01*
X0119900Y0022990D02*
X0115061Y0022990D01*
X0119900Y0021391D02*
X0109300Y0021391D01*
X0109300Y0019793D02*
X0120085Y0019793D01*
X0126917Y0018194D02*
X0206250Y0018194D01*
X0206250Y0016596D02*
X0014200Y0016596D01*
X0014200Y0018194D02*
X0038335Y0018194D01*
X0036800Y0019793D02*
X0014200Y0019793D01*
X0014200Y0021391D02*
X0036800Y0021391D01*
X0036800Y0022990D02*
X0014200Y0022990D01*
X0014200Y0024588D02*
X0037517Y0024588D01*
X0039116Y0026187D02*
X0014200Y0026187D01*
X0014200Y0027785D02*
X0038744Y0027785D01*
X0037145Y0029384D02*
X0014200Y0029384D01*
X0014200Y0030982D02*
X0036800Y0030982D01*
X0036800Y0032581D02*
X0014200Y0032581D01*
X0014200Y0034179D02*
X0037108Y0034179D01*
X0038707Y0035778D02*
X0023201Y0035778D01*
X0026003Y0037376D02*
X0039153Y0037376D01*
X0041800Y0041800D02*
X0021800Y0041800D01*
X0017597Y0037376D02*
X0014200Y0037376D01*
X0014200Y0035778D02*
X0020399Y0035778D01*
X0016368Y0038975D02*
X0014200Y0038975D01*
X0014200Y0040573D02*
X0015706Y0040573D01*
X0015700Y0042172D02*
X0014200Y0042172D01*
X0014200Y0043770D02*
X0016014Y0043770D01*
X0016742Y0045369D02*
X0014200Y0045369D01*
X0014200Y0046967D02*
X0018341Y0046967D01*
X0014200Y0048566D02*
X0077400Y0048566D01*
X0077400Y0046967D02*
X0025259Y0046967D01*
X0026858Y0045369D02*
X0038298Y0045369D01*
X0025995Y0058217D02*
X0025383Y0057605D01*
X0024683Y0057096D01*
X0023911Y0056703D01*
X0023088Y0056435D01*
X0022233Y0056300D01*
X0022000Y0056300D01*
X0022000Y0061600D01*
X0022000Y0062000D01*
X0027300Y0062000D01*
X0027300Y0062233D01*
X0027165Y0063088D01*
X0026897Y0063911D01*
X0026504Y0064683D01*
X0025995Y0065383D01*
X0025383Y0065995D01*
X0024683Y0066504D01*
X0023911Y0066897D01*
X0023088Y0067165D01*
X0022233Y0067300D01*
X0022000Y0067300D01*
X0022000Y0062000D01*
X0021600Y0062000D01*
X0021600Y0067300D01*
X0021367Y0067300D01*
X0020512Y0067165D01*
X0019689Y0066897D01*
X0018917Y0066504D01*
X0018217Y0065995D01*
X0017605Y0065383D01*
X0017096Y0064683D01*
X0016703Y0063911D01*
X0016435Y0063088D01*
X0016300Y0062233D01*
X0016300Y0062000D01*
X0021600Y0062000D01*
X0021600Y0061600D01*
X0022000Y0061600D01*
X0027300Y0061600D01*
X0027300Y0061367D01*
X0027165Y0060512D01*
X0026897Y0059689D01*
X0026504Y0058917D01*
X0025995Y0058217D01*
X0025935Y0058157D02*
X0060918Y0058157D01*
X0062516Y0056558D02*
X0023466Y0056558D01*
X0022000Y0056558D02*
X0021600Y0056558D01*
X0021600Y0056300D02*
X0021600Y0061600D01*
X0016300Y0061600D01*
X0016300Y0061367D01*
X0016435Y0060512D01*
X0016703Y0059689D01*
X0017096Y0058917D01*
X0017605Y0058217D01*
X0018217Y0057605D01*
X0018917Y0057096D01*
X0019689Y0056703D01*
X0020512Y0056435D01*
X0021367Y0056300D01*
X0021600Y0056300D01*
X0020134Y0056558D02*
X0014200Y0056558D01*
X0014200Y0054960D02*
X0064115Y0054960D01*
X0066800Y0056800D02*
X0081800Y0056800D01*
X0078168Y0053361D02*
X0014200Y0053361D01*
X0014200Y0051763D02*
X0093116Y0051763D01*
X0081800Y0050164D02*
X0081800Y0050164D01*
X0081800Y0048566D02*
X0081800Y0048566D01*
X0081800Y0046967D02*
X0081800Y0046967D01*
X0081800Y0045369D02*
X0081800Y0045369D01*
X0081800Y0043770D02*
X0081800Y0043770D01*
X0078942Y0050164D02*
X0014200Y0050164D01*
X0014200Y0058157D02*
X0017665Y0058157D01*
X0016681Y0059755D02*
X0014200Y0059755D01*
X0014200Y0061354D02*
X0016302Y0061354D01*
X0016414Y0062952D02*
X0014200Y0062952D01*
X0014200Y0064551D02*
X0017029Y0064551D01*
X0018429Y0066149D02*
X0014200Y0066149D01*
X0014200Y0067748D02*
X0051327Y0067748D01*
X0052925Y0066149D02*
X0025171Y0066149D01*
X0026571Y0064551D02*
X0054524Y0064551D01*
X0056122Y0062952D02*
X0027186Y0062952D01*
X0027298Y0061354D02*
X0057721Y0061354D01*
X0059319Y0059755D02*
X0026919Y0059755D01*
X0022000Y0059755D02*
X0021600Y0059755D01*
X0021600Y0058157D02*
X0022000Y0058157D01*
X0022000Y0061354D02*
X0021600Y0061354D01*
X0021600Y0062952D02*
X0022000Y0062952D01*
X0022000Y0064551D02*
X0021600Y0064551D01*
X0021600Y0066149D02*
X0022000Y0066149D01*
X0018911Y0071703D02*
X0018088Y0071435D01*
X0017233Y0071300D01*
X0017000Y0071300D01*
X0017000Y0076600D01*
X0022300Y0076600D01*
X0022300Y0076367D01*
X0022165Y0075512D01*
X0021897Y0074689D01*
X0021504Y0073917D01*
X0020995Y0073217D01*
X0020383Y0072605D01*
X0019683Y0072096D01*
X0018911Y0071703D01*
X0020298Y0072543D02*
X0046531Y0072543D01*
X0048130Y0070945D02*
X0014200Y0070945D01*
X0014200Y0069346D02*
X0049728Y0069346D01*
X0044933Y0074142D02*
X0021618Y0074142D01*
X0022201Y0075740D02*
X0043334Y0075740D01*
X0039190Y0077339D02*
X0022283Y0077339D01*
X0021884Y0078937D02*
X0037591Y0078937D01*
X0036800Y0080536D02*
X0020842Y0080536D01*
X0020761Y0082134D02*
X0036800Y0082134D01*
X0036800Y0086800D02*
X0041800Y0081800D01*
X0066800Y0056800D01*
X0047400Y0082134D02*
X0046800Y0082134D01*
X0046800Y0083733D02*
X0047510Y0083733D01*
X0049109Y0085332D02*
X0045340Y0085332D01*
X0036800Y0086800D02*
X0016800Y0086800D01*
X0016600Y0075740D02*
X0017000Y0075740D01*
X0017000Y0074142D02*
X0016600Y0074142D01*
X0016600Y0072543D02*
X0017000Y0072543D01*
X0014200Y0014997D02*
X0206250Y0014997D01*
X0206250Y0019793D02*
X0199294Y0019793D01*
X0198393Y0019420D02*
X0201337Y0020639D01*
X0203591Y0022892D01*
X0204810Y0025837D01*
X0204810Y0029023D01*
X0203591Y0031967D01*
X0201337Y0034221D01*
X0198393Y0035440D01*
X0195207Y0035440D01*
X0192263Y0034221D01*
X0190009Y0031967D01*
X0188790Y0029023D01*
X0188790Y0025837D01*
X0190009Y0022892D01*
X0192263Y0020639D01*
X0195207Y0019420D01*
X0198393Y0019420D01*
X0194306Y0019793D02*
X0128515Y0019793D01*
X0128700Y0021391D02*
X0191511Y0021391D01*
X0189969Y0022990D02*
X0171330Y0022990D01*
X0172443Y0024588D02*
X0189307Y0024588D01*
X0188790Y0026187D02*
X0172917Y0026187D01*
X0172917Y0027785D02*
X0188790Y0027785D01*
X0188939Y0029384D02*
X0172289Y0029384D01*
X0170958Y0030982D02*
X0174630Y0030982D01*
X0178812Y0030982D02*
X0189601Y0030982D01*
X0190623Y0032581D02*
X0180837Y0032581D01*
X0183651Y0034179D02*
X0192221Y0034179D01*
X0186303Y0037376D02*
X0206250Y0037376D01*
X0206250Y0035778D02*
X0185608Y0035778D01*
X0186420Y0038975D02*
X0206250Y0038975D01*
X0206250Y0040573D02*
X0186034Y0040573D01*
X0185680Y0042172D02*
X0206250Y0042172D01*
X0206250Y0043770D02*
X0186342Y0043770D01*
X0186420Y0045369D02*
X0206250Y0045369D01*
X0206250Y0046967D02*
X0185995Y0046967D01*
X0184865Y0048566D02*
X0194227Y0048566D01*
X0195207Y0048160D02*
X0198393Y0048160D01*
X0201337Y0049379D01*
X0203591Y0051633D01*
X0204810Y0054577D01*
X0204810Y0057763D01*
X0203591Y0060708D01*
X0201337Y0062961D01*
X0198393Y0064180D01*
X0195207Y0064180D01*
X0192263Y0062961D01*
X0190009Y0060708D01*
X0188790Y0057763D01*
X0188790Y0054577D01*
X0190009Y0051633D01*
X0192263Y0049379D01*
X0195207Y0048160D01*
X0199373Y0048566D02*
X0206250Y0048566D01*
X0206250Y0050164D02*
X0202122Y0050164D01*
X0203645Y0051763D02*
X0206250Y0051763D01*
X0206250Y0053361D02*
X0204307Y0053361D01*
X0204810Y0054960D02*
X0206250Y0054960D01*
X0206250Y0056558D02*
X0204810Y0056558D01*
X0204647Y0058157D02*
X0206250Y0058157D01*
X0206250Y0059755D02*
X0203985Y0059755D01*
X0202944Y0061354D02*
X0206250Y0061354D01*
X0206250Y0062952D02*
X0201346Y0062952D01*
X0206250Y0064551D02*
X0186076Y0064551D01*
X0184478Y0062952D02*
X0192254Y0062952D01*
X0190656Y0061354D02*
X0182879Y0061354D01*
X0181281Y0059755D02*
X0189615Y0059755D01*
X0188953Y0058157D02*
X0179682Y0058157D01*
X0178084Y0056558D02*
X0188790Y0056558D01*
X0188790Y0054960D02*
X0176485Y0054960D01*
X0174887Y0053361D02*
X0189293Y0053361D01*
X0189955Y0051763D02*
X0179122Y0051763D01*
X0180579Y0050164D02*
X0191478Y0050164D01*
X0176721Y0050164D02*
X0176721Y0050164D01*
X0176721Y0048566D02*
X0176721Y0048566D01*
X0176721Y0048099D02*
X0176721Y0052474D01*
X0176721Y0048099D01*
X0172346Y0048099D01*
X0176721Y0048099D01*
X0176721Y0048099D01*
X0176721Y0048099D01*
X0176721Y0051763D02*
X0176721Y0051763D01*
X0174321Y0051763D02*
X0173288Y0051763D01*
X0172864Y0050164D02*
X0171690Y0050164D01*
X0172366Y0048566D02*
X0170091Y0048566D01*
X0168493Y0046967D02*
X0172489Y0046967D01*
X0173255Y0045369D02*
X0166894Y0045369D01*
X0164847Y0043770D02*
X0172153Y0043770D01*
X0171746Y0042172D02*
X0131292Y0042172D01*
X0126800Y0046800D02*
X0163800Y0046800D01*
X0203800Y0086800D01*
X0197700Y0086175D02*
X0197700Y0085587D01*
X0197806Y0085331D01*
X0162475Y0050000D01*
X0133271Y0050000D01*
X0132232Y0051039D01*
X0130395Y0051800D01*
X0123205Y0051800D01*
X0130395Y0051800D01*
X0132232Y0052561D01*
X0133271Y0053600D01*
X0164437Y0053600D01*
X0165613Y0054087D01*
X0197700Y0086175D01*
X0197806Y0085332D02*
X0196857Y0085332D01*
X0196208Y0083733D02*
X0195258Y0083733D01*
X0194609Y0082134D02*
X0193660Y0082134D01*
X0193011Y0080536D02*
X0192061Y0080536D01*
X0191412Y0078937D02*
X0190463Y0078937D01*
X0189813Y0077339D02*
X0188864Y0077339D01*
X0188215Y0075740D02*
X0187266Y0075740D01*
X0186616Y0074142D02*
X0185667Y0074142D01*
X0185018Y0072543D02*
X0184069Y0072543D01*
X0183419Y0070945D02*
X0182470Y0070945D01*
X0181821Y0069346D02*
X0180872Y0069346D01*
X0180222Y0067748D02*
X0179273Y0067748D01*
X0178624Y0066149D02*
X0177675Y0066149D01*
X0177025Y0064551D02*
X0176076Y0064551D01*
X0175427Y0062952D02*
X0174478Y0062952D01*
X0173828Y0061354D02*
X0172879Y0061354D01*
X0172230Y0059755D02*
X0171281Y0059755D01*
X0170631Y0058157D02*
X0169682Y0058157D01*
X0169033Y0056558D02*
X0168084Y0056558D01*
X0167434Y0054960D02*
X0166485Y0054960D01*
X0165836Y0053361D02*
X0133032Y0053361D01*
X0130484Y0051763D02*
X0164237Y0051763D01*
X0162639Y0050164D02*
X0133107Y0050164D01*
X0126800Y0056800D02*
X0163800Y0056800D01*
X0203800Y0096800D01*
X0197700Y0096175D02*
X0197700Y0095587D01*
X0197806Y0095331D01*
X0162475Y0060000D01*
X0133271Y0060000D01*
X0132232Y0061039D01*
X0130395Y0061800D01*
X0123205Y0061800D01*
X0130395Y0061800D01*
X0132232Y0062561D01*
X0133271Y0063600D01*
X0164437Y0063600D01*
X0165613Y0064087D01*
X0197700Y0096175D01*
X0197397Y0094923D02*
X0196448Y0094923D01*
X0195799Y0093324D02*
X0194850Y0093324D01*
X0194200Y0091726D02*
X0193251Y0091726D01*
X0192602Y0090127D02*
X0191653Y0090127D01*
X0191003Y0088529D02*
X0190054Y0088529D01*
X0189405Y0086930D02*
X0188455Y0086930D01*
X0187806Y0085332D02*
X0186857Y0085332D01*
X0186208Y0083733D02*
X0185258Y0083733D01*
X0184609Y0082134D02*
X0183660Y0082134D01*
X0183011Y0080536D02*
X0182061Y0080536D01*
X0181412Y0078937D02*
X0180463Y0078937D01*
X0179813Y0077339D02*
X0178864Y0077339D01*
X0178215Y0075740D02*
X0177266Y0075740D01*
X0176616Y0074142D02*
X0175667Y0074142D01*
X0175018Y0072543D02*
X0174069Y0072543D01*
X0173419Y0070945D02*
X0172470Y0070945D01*
X0171821Y0069346D02*
X0170872Y0069346D01*
X0170222Y0067748D02*
X0169273Y0067748D01*
X0168624Y0066149D02*
X0167675Y0066149D01*
X0167025Y0064551D02*
X0166076Y0064551D01*
X0165427Y0062952D02*
X0132623Y0062952D01*
X0131472Y0061354D02*
X0163828Y0061354D01*
X0163800Y0066800D02*
X0203800Y0106800D01*
X0197700Y0106112D02*
X0197638Y0106112D01*
X0196988Y0104514D02*
X0196039Y0104514D01*
X0195390Y0102915D02*
X0194441Y0102915D01*
X0193791Y0101317D02*
X0192842Y0101317D01*
X0192193Y0099718D02*
X0191244Y0099718D01*
X0190594Y0098120D02*
X0189645Y0098120D01*
X0188996Y0096521D02*
X0188047Y0096521D01*
X0187397Y0094923D02*
X0186448Y0094923D01*
X0185799Y0093324D02*
X0184850Y0093324D01*
X0184200Y0091726D02*
X0183251Y0091726D01*
X0182602Y0090127D02*
X0181653Y0090127D01*
X0181003Y0088529D02*
X0180054Y0088529D01*
X0179405Y0086930D02*
X0178455Y0086930D01*
X0177806Y0085332D02*
X0176857Y0085332D01*
X0176208Y0083733D02*
X0175258Y0083733D01*
X0174609Y0082134D02*
X0173660Y0082134D01*
X0173011Y0080536D02*
X0172061Y0080536D01*
X0171412Y0078937D02*
X0170463Y0078937D01*
X0169813Y0077339D02*
X0168864Y0077339D01*
X0168215Y0075740D02*
X0167266Y0075740D01*
X0166616Y0074142D02*
X0165667Y0074142D01*
X0165018Y0072543D02*
X0132189Y0072543D01*
X0132326Y0070945D02*
X0163419Y0070945D01*
X0163800Y0066800D02*
X0126800Y0066800D01*
X0119889Y0074142D02*
X0103711Y0074142D01*
X0104373Y0075740D02*
X0119227Y0075740D01*
X0119200Y0077339D02*
X0104400Y0077339D01*
X0103927Y0078937D02*
X0119673Y0078937D01*
X0120865Y0080536D02*
X0102735Y0080536D01*
X0126800Y0083733D02*
X0126800Y0083733D01*
X0126800Y0085332D02*
X0126800Y0085332D01*
X0126800Y0086930D02*
X0126800Y0086930D01*
X0126800Y0088529D02*
X0126800Y0088529D01*
X0126800Y0090127D02*
X0126800Y0090127D01*
X0132995Y0093324D02*
X0175799Y0093324D01*
X0177397Y0094923D02*
X0134034Y0094923D01*
X0134400Y0096521D02*
X0178996Y0096521D01*
X0180594Y0098120D02*
X0145191Y0098120D01*
X0144632Y0097561D02*
X0146039Y0098968D01*
X0146800Y0100805D01*
X0146800Y0102795D01*
X0146039Y0104632D01*
X0144632Y0106039D01*
X0142795Y0106800D01*
X0140805Y0106800D01*
X0138968Y0106039D01*
X0137561Y0104632D01*
X0136800Y0102795D01*
X0136800Y0100805D01*
X0137561Y0098968D01*
X0138968Y0097561D01*
X0140805Y0096800D01*
X0142795Y0096800D01*
X0144632Y0097561D01*
X0146350Y0099718D02*
X0182193Y0099718D01*
X0183791Y0101317D02*
X0146800Y0101317D01*
X0146750Y0102915D02*
X0185390Y0102915D01*
X0186988Y0104514D02*
X0146088Y0104514D01*
X0144455Y0106112D02*
X0188587Y0106112D01*
X0190185Y0107711D02*
X0134400Y0107711D01*
X0134400Y0106112D02*
X0139145Y0106112D01*
X0137512Y0104514D02*
X0133865Y0104514D01*
X0132586Y0102915D02*
X0136850Y0102915D01*
X0136800Y0101317D02*
X0131561Y0101317D01*
X0133553Y0099718D02*
X0137250Y0099718D01*
X0138409Y0098120D02*
X0134265Y0098120D01*
X0133773Y0109309D02*
X0191784Y0109309D01*
X0193382Y0110908D02*
X0132363Y0110908D01*
X0132099Y0112506D02*
X0194981Y0112506D01*
X0196579Y0114105D02*
X0133696Y0114105D01*
X0134358Y0115703D02*
X0197700Y0115703D01*
X0197700Y0117302D02*
X0134400Y0117302D01*
X0133942Y0118900D02*
X0198067Y0118900D01*
X0198872Y0120499D02*
X0132772Y0120499D01*
X0131112Y0122097D02*
X0199876Y0122097D01*
X0198483Y0123696D02*
X0133367Y0123696D01*
X0134188Y0125294D02*
X0197821Y0125294D01*
X0197700Y0126893D02*
X0134400Y0126893D01*
X0134111Y0128491D02*
X0197898Y0128491D01*
X0198560Y0130090D02*
X0133181Y0130090D01*
X0130664Y0131688D02*
X0200062Y0131688D01*
X0198686Y0133287D02*
X0132958Y0133287D01*
X0134019Y0134885D02*
X0197990Y0134885D01*
X0197700Y0136484D02*
X0134400Y0136484D01*
X0134281Y0138082D02*
X0197729Y0138082D01*
X0198391Y0139681D02*
X0133590Y0139681D01*
X0131651Y0141279D02*
X0199653Y0141279D01*
X0199095Y0142878D02*
X0132549Y0142878D01*
X0133849Y0144476D02*
X0198160Y0144476D01*
X0197700Y0146075D02*
X0134400Y0146075D01*
X0134400Y0147673D02*
X0197700Y0147673D01*
X0198221Y0149272D02*
X0133788Y0149272D01*
X0132401Y0150870D02*
X0199244Y0150870D01*
X0201546Y0152469D02*
X0132010Y0152469D01*
X0133680Y0154068D02*
X0206250Y0154068D01*
X0206250Y0155666D02*
X0134342Y0155666D01*
X0134400Y0157265D02*
X0206250Y0157265D01*
X0206250Y0158863D02*
X0133957Y0158863D01*
X0132809Y0160462D02*
X0206250Y0160462D01*
X0206250Y0162060D02*
X0101022Y0162060D01*
X0102809Y0160462D02*
X0120790Y0160462D01*
X0119643Y0158863D02*
X0103957Y0158863D01*
X0104400Y0157265D02*
X0119200Y0157265D01*
X0119258Y0155666D02*
X0104342Y0155666D01*
X0103680Y0154068D02*
X0119920Y0154068D01*
X0122511Y0162722D02*
X0123170Y0162508D01*
X0123854Y0162400D01*
X0126800Y0162400D01*
X0129746Y0162400D01*
X0130430Y0162508D01*
X0131089Y0162722D01*
X0131706Y0163037D01*
X0132266Y0163444D01*
X0132756Y0163934D01*
X0133163Y0164494D01*
X0133478Y0165111D01*
X0133692Y0165770D01*
X0133800Y0166454D01*
X0133800Y0166800D01*
X0133800Y0167146D01*
X0133692Y0167830D01*
X0133478Y0168489D01*
X0133163Y0169106D01*
X0132756Y0169666D01*
X0132266Y0170156D01*
X0131706Y0170563D01*
X0131089Y0170878D01*
X0130430Y0171092D01*
X0129746Y0171200D01*
X0126800Y0171200D01*
X0126800Y0166800D01*
X0126800Y0166800D01*
X0133800Y0166800D01*
X0126800Y0166800D01*
X0126800Y0166800D01*
X0126800Y0162400D01*
X0126800Y0166800D01*
X0126800Y0166800D01*
X0126800Y0166800D01*
X0119800Y0166800D01*
X0119800Y0167146D01*
X0119908Y0167830D01*
X0120122Y0168489D01*
X0120437Y0169106D01*
X0120844Y0169666D01*
X0121334Y0170156D01*
X0121894Y0170563D01*
X0122511Y0170878D01*
X0123170Y0171092D01*
X0123854Y0171200D01*
X0126800Y0171200D01*
X0126800Y0166800D01*
X0119800Y0166800D01*
X0119800Y0166454D01*
X0119908Y0165770D01*
X0120122Y0165111D01*
X0120437Y0164494D01*
X0120844Y0163934D01*
X0121334Y0163444D01*
X0121894Y0163037D01*
X0122511Y0162722D01*
X0121119Y0163659D02*
X0103330Y0163659D01*
X0104173Y0165257D02*
X0120075Y0165257D01*
X0119800Y0166856D02*
X0104400Y0166856D01*
X0104127Y0168454D02*
X0120111Y0168454D01*
X0121230Y0170053D02*
X0103218Y0170053D01*
X0126800Y0170053D02*
X0126800Y0170053D01*
X0126800Y0168454D02*
X0126800Y0168454D01*
X0126800Y0166856D02*
X0126800Y0166856D01*
X0126800Y0165257D02*
X0126800Y0165257D01*
X0126800Y0163659D02*
X0126800Y0163659D01*
X0132481Y0163659D02*
X0206250Y0163659D01*
X0206250Y0165257D02*
X0133525Y0165257D01*
X0133800Y0166856D02*
X0206250Y0166856D01*
X0206250Y0168454D02*
X0133489Y0168454D01*
X0132370Y0170053D02*
X0206250Y0170053D01*
X0206250Y0152469D02*
X0206054Y0152469D01*
X0203800Y0116800D02*
X0163800Y0076800D01*
X0126800Y0076800D01*
X0141800Y0082134D02*
X0141800Y0082134D01*
X0141800Y0083733D02*
X0141800Y0083733D01*
X0141800Y0085332D02*
X0141800Y0085332D01*
X0144491Y0085332D02*
X0167806Y0085332D01*
X0166208Y0083733D02*
X0146090Y0083733D01*
X0146200Y0082134D02*
X0164609Y0082134D01*
X0163011Y0080536D02*
X0146200Y0080536D01*
X0187675Y0066149D02*
X0206250Y0066149D01*
X0206250Y0067748D02*
X0189273Y0067748D01*
X0190872Y0069346D02*
X0206250Y0069346D01*
X0206250Y0070945D02*
X0192470Y0070945D01*
X0194069Y0072543D02*
X0200302Y0072543D01*
X0200217Y0072605D02*
X0200917Y0072096D01*
X0201689Y0071703D01*
X0202512Y0071435D01*
X0203367Y0071300D01*
X0203600Y0071300D01*
X0203600Y0076600D01*
X0198300Y0076600D01*
X0198300Y0076367D01*
X0198435Y0075512D01*
X0198703Y0074689D01*
X0199096Y0073917D01*
X0199605Y0073217D01*
X0200217Y0072605D01*
X0198982Y0074142D02*
X0195667Y0074142D01*
X0197266Y0075740D02*
X0198399Y0075740D01*
X0203600Y0075740D02*
X0204000Y0075740D01*
X0204000Y0074142D02*
X0203600Y0074142D01*
X0203600Y0072543D02*
X0204000Y0072543D01*
X0206250Y0034179D02*
X0201379Y0034179D01*
X0202977Y0032581D02*
X0206250Y0032581D01*
X0206250Y0030982D02*
X0203999Y0030982D01*
X0204661Y0029384D02*
X0206250Y0029384D01*
X0206250Y0027785D02*
X0204810Y0027785D01*
X0204810Y0026187D02*
X0206250Y0026187D01*
X0206250Y0024588D02*
X0204293Y0024588D01*
X0203631Y0022990D02*
X0206250Y0022990D01*
X0206250Y0021391D02*
X0202089Y0021391D01*
X0164138Y0030982D02*
X0162527Y0030982D01*
X0156821Y0030982D02*
X0154653Y0030982D01*
X0148947Y0030982D02*
X0146779Y0030982D01*
X0141073Y0030982D02*
X0139462Y0030982D01*
X0122936Y0131688D02*
X0100664Y0131688D01*
X0096800Y0136800D02*
X0046800Y0136800D01*
X0016800Y0166800D01*
X0016800Y0201800D01*
X0020000Y0181242D02*
X0023600Y0181242D01*
X0023600Y0179644D02*
X0020000Y0179644D01*
X0020000Y0178045D02*
X0023600Y0178045D01*
X0023600Y0176447D02*
X0020000Y0176447D01*
X0020000Y0174848D02*
X0023600Y0174848D01*
X0023600Y0173250D02*
X0020000Y0173250D01*
X0020000Y0171651D02*
X0023600Y0171651D01*
X0024060Y0170053D02*
X0020000Y0170053D01*
X0020000Y0168454D02*
X0025620Y0168454D01*
X0027219Y0166856D02*
X0021270Y0166856D01*
X0022868Y0165257D02*
X0028817Y0165257D01*
X0030416Y0163659D02*
X0024467Y0163659D01*
X0026065Y0162060D02*
X0032014Y0162060D01*
X0033613Y0160462D02*
X0027664Y0160462D01*
X0029262Y0158863D02*
X0035211Y0158863D01*
X0036810Y0157265D02*
X0030861Y0157265D01*
X0032459Y0155666D02*
X0038408Y0155666D01*
X0040007Y0154068D02*
X0034058Y0154068D01*
X0035656Y0152469D02*
X0041606Y0152469D01*
X0043204Y0150870D02*
X0037255Y0150870D01*
X0038853Y0149272D02*
X0044803Y0149272D01*
X0046401Y0147673D02*
X0040452Y0147673D01*
X0042051Y0146075D02*
X0048000Y0146075D01*
X0049087Y0144987D02*
X0049087Y0144987D01*
X0049598Y0144476D02*
X0043649Y0144476D01*
X0039394Y0139681D02*
X0022209Y0139681D01*
X0022871Y0138082D02*
X0040992Y0138082D01*
X0042591Y0136484D02*
X0022900Y0136484D01*
X0022610Y0134885D02*
X0044189Y0134885D01*
X0037795Y0141279D02*
X0020947Y0141279D01*
X0021505Y0142878D02*
X0036197Y0142878D01*
X0034598Y0144476D02*
X0022440Y0144476D01*
X0022900Y0146075D02*
X0033000Y0146075D01*
X0031401Y0147673D02*
X0022900Y0147673D01*
X0022379Y0149272D02*
X0029803Y0149272D01*
X0028204Y0150870D02*
X0021356Y0150870D01*
X0019054Y0152469D02*
X0026606Y0152469D01*
X0025007Y0154068D02*
X0014200Y0154068D01*
X0014200Y0155666D02*
X0023408Y0155666D01*
X0021810Y0157265D02*
X0014200Y0157265D01*
X0014200Y0158863D02*
X0020211Y0158863D01*
X0018613Y0160462D02*
X0014200Y0160462D01*
X0014200Y0162060D02*
X0017014Y0162060D01*
X0015416Y0163659D02*
X0014200Y0163659D01*
X0014200Y0152469D02*
X0014546Y0152469D01*
X0050854Y0197227D02*
X0052746Y0197227D01*
M02*
