%
M48
M72
T01C0.03150
T02C0.03200
T03C0.03937
T04C0.04000
T05C0.07480
%
T01
X143926Y26800
X151800Y26800
X159674Y26800
X176721Y35501
X181446Y38650
X176721Y41800
X181446Y44950
X176721Y48099
T02
X41800Y21800
X41800Y31800
X41800Y41800
X51800Y41800
X56800Y26800
X76800Y26800
X89300Y21800
X89300Y31800
X104300Y31800
X111800Y26800
X104300Y21800
X124300Y21800
X124300Y31800
X126800Y46800
X126800Y56800
X126800Y66800
X126800Y76800
X126800Y86800
X126800Y96800
X126800Y106800
X126800Y116800
X126800Y126800
X126800Y136800
X126800Y146800
X126800Y156800
X126800Y166800
X126800Y176800
X126800Y186800
X126800Y196800
X96800Y176800
X96800Y166800
X86800Y176800
X81800Y186800
X96800Y156800
X96800Y146800
X96800Y136800
X96800Y126800
X96800Y116800
X96800Y106800
X96800Y96800
X96800Y86800
X96800Y76800
X96800Y66800
X96800Y56800
X96800Y46800
X81800Y46800
X81800Y56800
X51800Y81800
X41800Y81800
X46800Y176800
X41800Y186800
X31800Y186800
X21800Y186800
X141800Y101800
X141800Y81800
T03
X136052Y26800
X167548Y26800
T04
X21800Y41800
X21800Y61800
X16800Y76800
X16800Y86800
X16800Y96800
X16800Y106800
X16800Y116800
X16800Y126800
X16800Y136800
X16800Y146800
X16800Y201800
X26800Y201800
X36800Y201800
X46800Y201800
X56800Y201800
X86800Y196800
X106800Y196800
X81800Y106800
X81800Y96800
X81800Y86800
X203800Y86800
X203800Y76800
X203800Y96800
X203800Y106800
X203800Y116800
X203800Y126800
X203800Y136800
X203800Y146800
T05
X196800Y56170
X196800Y27430
M30
